<?xml version="1.0" encoding="utf-8"?>
<!-- Generator: Adobe Illustrator 16.0.0, SVG Export Plug-In . SVG Version: 6.00 Build 0)  -->
<!DOCTYPE svg PUBLIC "-//W3C//DTD SVG 1.1//EN" "http://www.w3.org/Graphics/SVG/1.1/DTD/svg11.dtd">
<svg version="1.1" id="logo" xmlns="http://www.w3.org/2000/svg" xmlns:xlink="http://www.w3.org/1999/xlink" x="0px" y="0px"
	 width="520.135px" height="520.135px" viewBox="33.432 8.236 520.135 520.135"
	 enable-background="new 33.432 8.236 520.135 520.135" xml:space="preserve">
<ellipse display="none" fill="#E05151" stroke="#FFFFFF" stroke-miterlimit="10" cx="355.5" cy="234.151" rx="431" ry="371"/>
<g id="Layer_10">
</g>
<g>
	<path fill="#FFFFFF" d="M222.181,311.485c0,0,58.074-14.225,79.305-66.339c0,0-25.746-3.834-52.098-18.706
		c0,0,12.662,16.378,28.45,23.395c0,0-20.797,38.407-77.432,43.872c0,0,3.497,46.677,46.795,77.758
		C247.2,371.465,223.553,336.112,222.181,311.485z"/>
	<path fill="#FFFFFF" d="M202.755,249.835c26.516-5.071,46.632-23.395,46.632-23.395c-34.021,19.774-45.654,12.273-45.654,12.273
		s4.149-54.436-11.717-60.537c-15.867-6.1-28.084,3.661-28.084,3.661c42.725-18.549,34.185,44.603,34.185,44.603
		c-3.661,43.759,2.288,67.267,2.288,67.267C197.566,268.395,202.755,249.835,202.755,249.835z"/>
	<path fill="#FFFFFF" d="M234.848,183.479c1.76-20.826-4.919-57.703-43.681-36.81c0,0,39.7-19.932,39.7,36.872
		c0,29.692,18.52,42.899,18.52,42.899S233.105,204.091,234.848,183.479z"/>
	<path fill="#FFFFFF" d="M181.306,163.829c0,0-15.259-2.086-17.374,18.009C163.932,181.838,170.044,166.427,181.306,163.829z"/>
	<path fill="#FFFFFF" d="M293.5,8.236c-143.631,0-260.068,116.437-260.068,260.068c0,143.632,116.437,260.067,260.068,260.067
		c143.631,0,260.067-116.436,260.067-260.067C553.567,124.672,437.131,8.236,293.5,8.236z M293.5,485.304
		c-119.846,0-217-97.154-217-217s97.154-217,217-217s217,97.154,217,217S413.346,485.304,293.5,485.304z"/>
	<path fill="#FFFFFF" d="M405.021,319.368l10.036-5.089c-50.815-48.881-80.794-41.285-80.794-41.285
		c39.672-1.462,75.476,40.763,75.476,40.768l-11.583,8.692c21.76-5.977,39.779,13.803,39.779,13.803
		c-18.711,11.009-68.188,18.11-68.188,18.11c35.983,1.209,76.335-17.058,76.335-17.058
		C421.372,313.386,405.021,319.368,405.021,319.368z"/>
	<path fill="#FFFFFF" d="M279.749,370.925c0-0.005,40.949-41.162,39.851-117.233c0,0-15.112,77.309-72.399,117.778
		c0,0,44.929,39.418,134.804-4.29C382.004,367.181,310.503,383.548,279.749,370.925z"/>
</g>
</svg>
