<?xml version="1.0" encoding="utf-8"?>
<!-- Generator: Adobe Illustrator 16.0.0, SVG Export Plug-In . SVG Version: 6.00 Build 0)  -->
<!DOCTYPE svg PUBLIC "-//W3C//DTD SVG 1.1//EN" "http://www.w3.org/Graphics/SVG/1.1/DTD/svg11.dtd">
<svg version="1.1" xmlns="http://www.w3.org/2000/svg" xmlns:xlink="http://www.w3.org/1999/xlink" x="0px" y="0px"
	 width="691.29px" height="326.285px" viewBox="0 0 691.29 326.285" enable-background="new 0 0 691.29 326.285"
	 xml:space="preserve">
<g id="madison">
	<g id="Layer_11">
		<path fill="#21445E" d="M555.682,160.917l-0.399,0.025l-6.396,12.732l6.355,2.627l6.275-4.594
			C561.518,171.708,559.99,162.627,555.682,160.917z"/>
		<path fill="#9EBBD8" d="M549.925,170.551l6.251-13.09l5.278,6.452c0,0,0.58,8.082-6.922,8.236c0,0,5.932-1.059,3.565-7.19
			c-0.785-1.883-2.787-3.576-2.787-3.576l-5.03,9.938L549.925,170.551z"/>
		<polygon fill="#9EBBD8" points="496.644,190.955 502.962,163.395 503.988,162.168 506.207,166.937 511.086,307.557 
			500.332,306.475 		"/>
		<path fill="#577DAA" d="M595.518,177.486l20.919,135.999l-113.784-7.161l0.856-142.982l4.092,0.098l38.489-6.843l0.697,1.65
			c0,0-5.741,2.436-0.898,8.905c4.844,6.471,12.692,4.709,13.45,0.457c0.757-4.252-1.979-6.656-3.529-7.809l0.326-1.791
			l37.236,19.34L595.518,177.486z"/>
		<polygon fill="#2C4F71" points="595.971,177.624 595.833,175.494 593.527,175.201 556.37,155.931 549.925,170.551 556.136,158.01 
			593.372,177.35 595.518,177.486 595.59,177.953 		"/>
		<polygon fill="#2E5A7F" points="502.759,160.257 496.108,189.964 496.254,192.206 496.77,192.172 503.509,163.342 504.553,161.58 
					"/>
		<polygon fill="#2C4F71" points="546.232,156.936 546.17,155.972 545.231,154.04 506.363,161.063 502.759,160.257 503.509,163.342 
			507.601,163.439 		"/>
		<polygon fill="#3A6289" points="573.57,188.291 566.397,187.304 567.939,204.346 575.215,205.233 		"/>
		<polygon fill="#3A6289" points="581.835,189.54 574.736,188.43 576.644,205.298 583.525,206.163 		"/>
		<polygon fill="#3A6289" points="590.362,190.754 583.308,189.718 584.979,206.339 592.399,207.271 		"/>
		<polygon fill="#3A6289" points="520.933,181.163 512.691,179.983 513.406,198.032 521.845,199.129 		"/>
		<polygon fill="#3A6289" points="531.146,182.561 522.454,181.317 523.371,199.342 532.454,200.268 		"/>
		<polygon fill="#3A6289" points="540.378,184.028 532.684,182.821 533.822,200.389 541.905,201.479 		"/>
		<polygon fill="#3A6289" points="562.666,186.951 544.49,184.15 545.914,201.868 564.33,204.053 		"/>
		<polygon fill="#577DAA" points="560.893,186.003 562.745,204.617 561.733,204.683 559.937,185.51 		"/>
		<polygon fill="#577DAA" points="558.475,185.246 560.328,203.861 559.314,203.928 557.517,184.753 		"/>
		<polygon fill="#577DAA" points="556.174,185.396 558.028,204.011 557.015,204.076 555.217,184.902 		"/>
		<polygon fill="#577DAA" points="553.894,185.201 555.748,203.816 554.736,203.883 552.938,184.708 		"/>
		<polygon fill="#577DAA" points="551.649,184.949 553.502,203.564 552.489,203.631 550.692,184.456 		"/>
		<polygon fill="#577DAA" points="549.37,184.773 551.225,203.389 550.211,203.454 548.414,184.28 		"/>
		<polygon fill="#577DAA" points="546.804,184.431 548.657,203.046 547.645,203.111 545.847,183.937 		"/>
		<polygon fill="#2F516D" points="520.933,181.163 513.03,188.548 512.691,179.983 		"/>
		<polygon fill="#2F516D" points="531.146,182.561 522.454,181.317 522.83,188.717 		"/>
		<polygon fill="#2F516D" points="540.378,184.028 533.137,189.816 532.684,182.821 		"/>
		<polygon fill="#2F516D" points="545.875,184.364 544.679,186.498 544.49,184.15 		"/>
		<polygon fill="#2F516D" points="546.995,186.348 546.804,184.431 548.445,184.761 		"/>
		<polygon fill="#2F516D" points="549.555,186.619 549.37,184.773 550.754,185.116 		"/>
		<polygon fill="#2F516D" points="551.837,186.838 551.68,185.259 552.987,185.461 		"/>
		<polygon fill="#2F516D" points="554.09,187.171 553.974,185.612 555.269,185.813 		"/>
		<polygon fill="#2F516D" points="556.39,187.557 556.23,185.96 557.604,186.099 		"/>
		<polygon fill="#2F516D" points="558.729,187.801 558.634,186.33 559.902,186.525 		"/>
		<polygon fill="#2F516D" points="561.092,188.006 561.009,186.724 562.666,186.951 		"/>
		<polygon fill="#2F516D" points="566.918,193.051 566.397,187.304 573.57,188.291 		"/>
		<polygon fill="#2F516D" points="575.282,193.248 574.736,188.43 581.835,189.54 		"/>
		<polygon fill="#2F516D" points="583.786,194.473 583.308,189.718 590.362,190.754 		"/>
		<polygon fill="#3A6289" points="522.181,206.423 513.898,205.568 515.324,223.574 523.799,224.339 		"/>
		<polygon fill="#3A6289" points="532.44,207.417 523.707,206.517 525.333,224.491 534.445,225.058 		"/>
		<polygon fill="#3A6289" points="541.724,208.52 533.987,207.616 535.816,225.126 543.937,225.895 		"/>
		<polygon fill="#3A6289" points="576.34,211.818 569.129,211.167 571.466,228.118 578.775,228.664 		"/>
		<polygon fill="#3A6289" points="584.654,212.679 577.511,211.901 580.206,228.663 587.12,229.204 		"/>
		<polygon fill="#3A6289" points="593.229,213.492 586.133,212.787 588.581,229.313 596.036,229.895 		"/>
		<polygon fill="#2F516D" points="522.181,206.423 514.433,212.32 513.898,205.568 		"/>
		<polygon fill="#2F516D" points="524.32,212.955 532.44,207.417 523.707,206.517 		"/>
		<polygon fill="#2F516D" points="541.724,208.52 533.987,207.616 534.593,213.404 		"/>
		<polygon fill="#2F516D" points="569.913,216.863 569.129,211.167 576.34,211.818 		"/>
		<polygon fill="#2F516D" points="578.322,216.945 577.511,211.901 584.654,212.679 		"/>
		<polygon fill="#2F516D" points="586.83,217.495 586.133,212.787 593.229,213.492 		"/>
	</g>
</g>
<g id="bofa">
	<polygon fill="#2F4F6C" points="639.976,117.652 642.198,87.749 643.814,118.265 	"/>
	<path fill="#9DB3DD" d="M681.104,239.075l10.186,80.4l-31.152-3.04l-3.284-143.567C656.854,172.868,671.89,195.908,681.104,239.075
		z"/>
	<polygon fill="#678CC5" points="654.671,139.401 661.218,147.647 681.104,239.075 652.868,173.111 	"/>
	<polygon fill="#2F4F6C" points="656.146,170.201 660.975,195.908 664.128,317.648 656.146,319.476 	"/>
	<polygon fill="#39608E" points="638.952,115.862 623.386,143.524 612.23,203.455 627.75,189.254 	"/>
	<polygon fill="#5277AF" points="638.952,115.862 625.568,147.163 622.659,169.958 599.377,227.677 593.8,300.326 593.8,316.193 
		634.993,319.476 649.576,296.308 646.16,119.031 	"/>
	<polygon fill="#678CC5" points="656.146,114.299 638.952,115.862 636.174,292.61 655.923,268.442 652.868,145.707 	"/>
	<polygon fill="#9DB3DD" points="656.146,114.299 636.9,246.354 634.993,319.476 659.676,326.285 	"/>
</g>
<g id="flatiron">
	<path fill="#2F4F6C" d="M445.836,203.009c0,0-3.303-0.635-4.192-3.939l38.686-71.631c0,0,6.104-10.302,13.8-8.045
		c7.558,2.216,3.761,9.097-0.188,30.706L445.836,203.009z"/>
	<path fill="#678CC5" d="M500.53,304.733c0,0-14.524,0-58.071,0l2.106-102.366l40.789-69.887c0,0,3.414-5.485,6.742-5.014
		c1.686,0.238,3.042,0.571,3.423,5.527c0,0,0.115,4.367,0.255,9.53C496.528,170.613,500.072,274.536,500.53,304.733z"/>
	<path fill="#4974A6" d="M490.809,127.559l4.86,177.175h4.861l-4.942-172.035c0,0-0.068-4.159-2.288-4.96
		C491.951,127.191,490.809,127.559,490.809,127.559z"/>
	<path fill="#577EB5" d="M490.809,127.559c0,0-1.143,0.33-2.158,1.168l4.566,176.007h3.045L490.809,127.559z"/>
	<path fill="#386593" d="M492.99,127.662l5.215,177.071h2.325l-4.942-172.035C495.588,132.698,495.297,127.944,492.99,127.662z"/>
	<path fill="#264156" d="M496.173,155.712c0,0-0.018-4.799-4.465-5.308c-4.448-0.509-8.472,4.608-15.333,15.917
		c-6.861,11.311-32.111,50.673-32.111,50.673s-2.33-0.266,0.066-3.186c2.396-2.92,39.118-60.482,39.118-60.482
		s4.132-5.247,8.386-4.573C494.766,149.216,497.74,150.568,496.173,155.712z"/>
	<path fill="#264156" d="M444.155,222.311l40.213-59.736c0,0,4.61-6.799,9.045-4.298c3.265,1.841,3.03,5.723,3.03,5.723
		s1.906-4.438-2.575-6.733c-4.709-2.412-8.26,1.966-10.039,4.16c-1.778,2.193-39.616,58.078-39.616,58.078
		S442.459,222.078,444.155,222.311z"/>
	<path fill="#264156" d="M442.877,284.441c0,0,31.393-19.346,44.334-24.031c0.201-0.073,14.142-5.76,14.132-0.499
		c-0.256,1.758-1.601,2.573-1.601,2.573s-1.079-4.697-12.147-0.347c-11.067,4.352-44.755,24.098-44.755,24.098
		S441.688,285.16,442.877,284.441z"/>
	<path fill="#264156" d="M500.061,273.351c0,0-5.902-2.955-12.375,0.161l-44.993,19.904c0,0-1.477-0.581,0.014-1.606l46.272-20.805
		c0,0,7.427-2.869,10.99-0.883C499.969,270.122,503.113,271.315,500.061,273.351z"/>
</g>
<g id="empire_st">
	<g id="Layer_59">
		<polygon fill="#1D3349" points="332.113,80.35 333.434,54.846 335.227,53.584 336.148,27.114 337.51,53.644 339.299,54.718 
			343.338,80.905 		"/>
		<path fill="#36567C" d="M328.805,86.75c0,0-0.338-4.377,0.271-6.605c0.754-2.756,2.713-3.286,8.383-3.407
			c3.838-0.082,8.184,0.438,9.295,2.257c2.125,3.478,1.16,7.896,1.16,7.896L328.805,86.75z"/>
	</g>
	<g id="Layer_57">
		<polygon fill="#1D3349" points="325.297,102.071 325.227,93.207 330.68,81.005 330.826,99.463 		"/>
	</g>
	<g id="Layer_58">
		<polyline fill="#678CC5" points="330.68,81.005 350.768,83.241 351.203,93.443 330.611,92.986 330.518,81.365 		"/>
	</g>
	<g id="Layer_56">
		<polygon fill="#B6CDD7" points="324.061,100.937 325.287,100.927 325.305,103.195 324.041,103.463 		"/>
	</g>
	<g id="Layer_55">
		<polygon fill="#3E6387" points="330.91,109.94 330.736,88.308 355.504,91.447 356.289,117.793 		"/>
	</g>
	<g id="Layer_48">
		<polygon fill="#1D3349" points="322.869,245.944 322.732,121.306 324.221,121.293 324.068,101.954 325.877,99.502 326.74,132.497 
			327.078,248.213 		"/>
		<polygon fill="#2E4E6B" points="330.736,88.308 325.832,98.523 326.146,115.784 330.898,108.661 		"/>
		<polygon fill="#2E4E6B" points="324.061,100.937 321.318,105.847 320.834,125.458 322.732,121.306 324.221,121.293 		"/>
	</g>
	<g id="Layer_52">
		<polygon fill="#678CC5" points="328.977,108.424 358.186,112.024 365.721,259.811 329.463,261.449 		"/>
		<polygon fill="#36567C" points="328.977,108.424 326.014,114.909 325.303,256.623 329.463,261.449 		"/>
	</g>
	<g id="Layer_53">
		<polygon fill="#36567C" points="319.775,243.361 315.227,241.419 316.227,293.65 320.227,299.65 		"/>
		<polygon fill="#3E6387" points="319.754,243.281 325.943,243.231 325.633,298.05 320.227,299.65 		"/>
	</g>
	<g id="Layer_51">
		<polygon fill="#3E6387" points="330.076,245.887 344.646,245.771 345.156,309.741 330.582,309.361 		"/>
		<polygon fill="#36567C" points="330.082,246.531 324.027,243.946 325.043,302.54 330.582,309.361 		"/>
		<polygon fill="#2E4E6B" points="324.027,243.946 337.275,243.84 344.646,245.771 330.082,246.531 		"/>
		<polygon fill="#2E4E6B" points="315.227,241.419 320.758,241.195 325.943,243.231 319.775,243.361 		"/>
		<g id="Layer_54">
			<polygon fill="#36567C" points="322.732,121.306 319.77,127.79 318.695,241.278 320.582,242.03 322.838,242.012 			"/>
		</g>
	</g>
	<g id="Layer_49">
		<polygon fill="#3E6387" points="359.242,244.347 373.813,244.229 373.984,265.838 359.418,266.502 		"/>
		<polygon fill="#36567C" points="359.246,244.99 356.852,243.521 356.818,264.43 359.418,266.502 		"/>
		<polygon fill="#2E4E6B" points="356.852,243.521 364.859,242.917 364.811,241.97 373.813,244.229 359.246,244.99 		"/>
	</g>
	<g id="Layer_50">
		<g id="Layer_45">
			<polygon fill="#3E6387" points="338.008,259.795 374.275,259.505 374.699,312.726 338.443,314.363 			"/>
		</g>
		<g id="Layer_46">
			<polygon fill="#36567C" points="338.02,261.381 334.6,259.663 334.281,309.537 338.443,314.363 			"/>
		</g>
		<g id="Layer_47">
			<polygon fill="#2E4E6B" points="334.6,259.663 367.986,257.92 374.275,259.505 338.02,261.381 			"/>
		</g>
	</g>
</g>
<g id="Layer_12">
	<polygon fill="#2F4F6C" points="414.211,95.41 426.428,97.524 431.063,127.65 423.913,152.854 432.035,180.121 434.803,318.624 
		410.05,313.52 	"/>
	<polyline fill="#264156" points="414.688,134.983 426.663,136.658 433.732,139.944 426.884,156.084 413.048,153.774 
		413.917,135.368 	"/>
	<polyline fill="#264156" points="414.505,178.637 428.868,178.411 433.55,183.598 426.7,200.327 412.865,197.428 413.734,179.021 	
		"/>
	<polyline fill="#264156" points="413.968,225.822 427.913,226.974 432.769,231.483 422.753,251.065 412.084,245.313 
		412.953,226.907 	"/>
	<polygon fill="#264156" points="414.882,277.19 428.282,277.559 426.049,309.741 414.52,307.188 	"/>
	<g id="Layer_68_1_">
		<polygon display="none" fill="#3F6487" points="414.211,95.41 426.764,97.028 434.64,142.504 433.173,320.188 423.025,323.701 
			409.234,321.466 		"/>
		<polygon fill="#678CC5" points="366.613,314.561 366.613,298.778 373.077,277.559 366.613,254.949 373.077,232.326 
			368.376,211.76 374.84,190.311 370.727,171.507 376.31,151.822 371.461,134.781 377.778,113.92 414.211,95.41 420.969,111.569 
			413.917,135.368 420.969,153.291 414.505,177.971 420.969,199.125 414.505,225.568 420.969,250.188 414.798,277.559 
			423.025,304.346 423.025,323.701 		"/>
		<polygon display="none" fill="#688CC4" points="426.764,97.028 420.969,111.569 426.764,135.391 420.969,153.291 426.764,178.325 
			420.969,199.125 428.542,225.58 420.969,250.188 428.542,277.559 423.025,304.346 423.025,323.701 452.169,313.609 
			453.186,299.87 447.85,277.559 451.108,255.254 446.58,231.169 449.882,210.365 445.31,189.251 448.612,171.721 444.039,149.364 
			447.342,134.629 442.261,113.288 		"/>
		<path fill="#7C9DD1" d="M414.882,277.19l0.426-1.89l5.661-25.113l-6.08-23.158l-0.257-0.975l-0.065-0.212h0.001l6.401-26.718
			l-6.287-20.397l6.987-24.812l-0.785-0.223l0.561-1.871l-6.506-16.214l-0.251-0.625l6.281-23.414l-6.758-16.159l-1.594,0.809
			l-11.201,5.691l0,0l-0.969,0.492l-12.111,6.153l-0.333-0.094l-0.085,0.307l-10.14,5.151l-6.017,19.868l-0.301,0.992l4.849,17.042
			l-0.411,0.824l-5.092,18.576l-0.08,0.285l0.054,0.456l3.781,17.074l0.179,0.69l0.001,0.002l-6.177,21.378l-0.306,0.076
			l0.133,0.523l-0.016,0.052v0.372l0.241,0.681l0.05-0.012l4.167,18.461l0.196,0.86l-6.165,22.111l-0.048,0.004l-0.204,0.714
			l0.026,0.092l-0.026,0.095l0.046,0.018l6.289,22.524l-0.1,0.629l0.029-0.002l-6.265,20.473v1.086l56.412,4.482L414.882,277.19z
			 M414.665,274.918l-5.585-22.77l10.93-0.924L414.665,274.918z M399.425,182.959l0.067,0.21l-5.829,20.721l-5.103-16.834
			l0.258-0.925L399.425,182.959z M389.286,184.463l4.933-19.09l4.726,16.088L389.286,184.463z M393.726,209.36l5.556,18.355
			l-0.005,0.021l-11.282,1.978L393.726,209.36z M394.494,206.632l0.036-0.13l11.509-2.804l-5.794,22.289L394.494,206.632z
			 M394.889,205.229l5.46-19.388l5.357,16.724L394.889,205.229z M400.236,180.525l-5.279-16.327l0.122-0.434l11.028-4.107
			L400.236,180.525z M395.531,162.148l4.935-18.934l5.228,15.099L395.531,162.148z M394.187,161.813l-4.98-15.403l10.527-4.419
			L394.187,161.813z M393.057,163.082l-10.021,3.78l5.255-18.659L393.057,163.082z M393.467,164.364l0.003,0.007l-5.658,20.215
			l-4.934-16.277L393.467,164.364z M392.643,205.782l-9.969,2.306l5.124-18.311L392.643,205.782z M392.811,206.92l-5.773,21.823
			l-4.683-19.275L392.811,206.92z M392.063,252.186l-10.643,0.864l5.616-20.984L392.063,252.186z M388.038,231.072l10.841-1.926
			l-5.933,21.084L388.038,231.072z M400.245,229.715l6.092,21.31l-12.299,1L400.245,229.715z M401.098,228.768l12.646-1.832
			l-6.354,23.864L401.098,228.768z M400.96,227.447l5.961-21.164l6.411,19.47L400.96,227.447z M406.826,200.902l-5.729-17.717
			l0.223-0.794l11.699-3.498L406.826,200.902z M401.836,180.563l5.208-18.492l5.457,15.178L401.836,180.563z M406.839,157.057
			l-5.572-15.4l0.098-0.351l11.233-4.715L406.839,157.057z M401.869,139.504l5.435-20.086l5.606,15.445l-0.006,0.02L401.869,139.504
			z M400.455,139.413l-5.405-14.938l11.102-5.415L400.455,139.413z M399.314,140.573l-10.063,4.213l5.085-18.057L399.314,140.573z
			 M388.177,143.226l-4.301-13.3l9.478-4.623L388.177,143.226z M387.438,145.545l-9.301,3.895l4.924-17.561L387.438,145.545z
			 M386.987,147.34l-5.106,17.677l-4.178-13.78L386.987,147.34z M381.988,170.583l4.468,14.76l-9.38,2.686L381.988,170.583z
			 M386.87,186.713l0.181,0.594l-5.495,21.059l-5.103-18.128l0.09-0.316L386.87,186.713z M386.186,230.029l-11.789,1.955
			l7.105-21.619L386.186,230.029z M375.698,232.926h0.023l0.001-0.003l10.197-1.511l-5.734,21.148l-5.241-19.544L375.698,232.926z
			 M384.877,277.002l-10.276,0.269l5.53-21.753L384.877,277.002z M380.894,254.924l-0.163-0.344l11.277-1.012l-5.942,22.495
			L380.894,254.924z M392.905,254.2l5.825,22.44l-11.712,0.306L392.905,254.2z M393.769,253.422l12.549-1.045l-6.195,24.079
			l-0.298-0.706L393.769,253.422z M407.684,252.46l6.305,23.439l0.14,0.324l-12.661,0.419L407.684,252.46z M419.833,249.512
			l-11.279,1.332l5.96-22.845L419.833,249.512z M414.017,224.062l-6.332-20.491l0.082-0.293l11.822-2.88L414.017,224.062z
			 M419.63,199.137l-11.494,2.83l5.822-20.669L419.63,199.137z M413.772,176.215l-6.024-16.646l0.165-0.583l11.961-4.455
			L413.772,176.215z M419.665,153.041l-11.276,4.256l5.029-19.609L419.665,153.041z M413.651,132.4l-5.705-14.217l11.695-5.705
			L413.651,132.4z M413.446,98.137l5.717,13.232l-10.856,5.135L413.446,98.137z M411.898,98.527l-4.865,17.381l-4.992-12.44
			L411.898,98.527z M400.617,104.43l5.329,13.19l-10.433,4.934L400.617,104.43z M399.26,104.863l-5.021,17.374l-4.551-12.576
			L399.26,104.863z M388.813,111.362l4.413,12.274l-9.055,4.282L388.813,111.362z M387.34,110.838l-4.468,15.987l-3.824-11.831
			L387.34,110.838z M378.272,116.933l3.833,11.964l-8.712,4.121L378.272,116.933z M372.871,135.295l8.841-4.313l-4.524,18.117
			L372.871,135.295z M376.938,153.898l4.148,13.7l-9.172,3.423L376.938,153.898z M372.013,172.113l8.688-3.014l-4.842,19.271
			L372.013,172.113z M375.564,191.175l4.979,17.589l-10.737,2.637L375.564,191.175z M370.184,212.432l0.021-0.005h0.001l0.001-0.001
			l10.532-2.565l-6.945,20.731L370.184,212.432z M373.83,233.252l5.052,20.004l-10.899,0.887L373.83,233.252z M368.146,255.552
			l11.083-0.922l0.075,0.299l-5.695,20.245L368.146,255.552z M367.748,298.861l5.671-19.498l5.896,20.414L367.748,298.861z
			 M374.473,278.278l10.635-0.189l-5.372,19.096L374.473,278.278z M380.583,299.796l5.4-20.409l4.837,21.154L380.583,299.796z
			 M392.421,300.657l-5.695-22.598l12.146-0.216l0.069,0.261l-6.467,22.556L392.421,300.657z M394.397,300.801l5.752-22.769
			l5.02,23.553L394.397,300.801z M401.484,277.872l0.374-0.082l12.055-0.306l-7.999,23.395L401.484,277.872z M414.345,278.922
			l7.313,23.863l-14.894-1.085L414.345,278.922z"/>
	</g>
	<polygon fill="#3F6487" points="426.402,97.478 443.119,114.717 447.298,134.568 444.163,149.718 448.604,173.226 445.208,189.419 
		450.171,211.883 446.253,231.996 451.738,253.856 447.82,277.559 453.306,301.018 453.306,323.446 423.025,323.701 
		423.025,304.348 428.282,277.559 420.969,250.188 427.447,226.771 420.969,199.125 427.447,178.45 420.969,153.291 
		426.663,136.658 420.969,111.569 	"/>
	<g opacity="0.2">
		<g>
			<polygon fill="none" points="439.256,126.622 435.415,108.549 428.257,101.45 432.098,120.403 			"/>
			<polygon fill="none" points="442.282,251.469 437.772,230.222 429.153,227.909 433.833,250.66 			"/>
			<polygon fill="none" points="437.43,228.604 432.375,204.791 422.753,200.957 429.021,226.181 			"/>
			<polygon fill="none" points="427.791,183.196 422.542,199.35 432.035,203.192 			"/>
			<polygon fill="none" points="426.996,100.895 426.899,101.161 422.826,112.348 430.629,119.127 			"/>
			<polygon fill="none" points="423.372,114.895 427.884,135.941 435.214,142.145 431.045,121.218 			"/>
			<polygon fill="none" points="439.822,165.276 435.583,143.998 427.914,137.688 432.55,160.212 			"/>
			<polygon fill="none" points="447.69,276.946 442.614,253.035 434.165,252.274 439.197,276.737 			"/>
			<polygon fill="none" points="427.051,139.944 422.704,153.355 431.063,159.176 			"/>
			<polygon fill="none" points="433.732,205.332 438.649,228.955 446.064,231.093 441.321,208.356 			"/>
			<polygon fill="none" points="429.058,179.302 436.03,182.988 431.6,161.748 423.208,156.084 			"/>
			<polygon fill="none" points="441.002,206.822 436.407,184.795 428.604,180.695 433.402,203.746 			"/>
			<polygon fill="none" points="433.071,162.741 437.387,183.706 444.213,187.316 440.288,167.612 			"/>
			<polygon fill="none" points="428.688,277.87 424.803,302.616 443.073,300.817 438.317,278.068 			"/>
			<polygon fill="none" points="423.264,249.649 432.563,250.538 428.318,230.238 			"/>
			<polygon fill="none" points="436.771,143.462 444.163,149.718 439.606,128.273 432.507,122.423 			"/>
			<polygon fill="none" points="438.033,276.709 432.901,252.161 423.22,251.29 428.664,276.479 			"/>
			<path fill="#FFFFFF" d="M453.306,300.745l-5.485-23.187l0.419-2.53v-0.001l3.424-20.715l-0.41-0.499l0.485,0.043l-0.255-1.015
				l0.007-0.493l-0.134-0.013l-4.751-18.935l-0.512-0.947l0.294,0.078l-0.088-0.536l0.109-0.805l0.365-1.874l-0.088-0.428
				l3.484-17.007l-0.327-1.48h-0.001l-4.188-18.896l0.007-0.034l-0.454-2.053l3.396-16.193l-0.231-1.23l-4.054-21.5l-0.039-0.164
				l-0.105-0.556l0.038-0.29l3.078-14.88l-0.239-1.21l-0.019-0.016l-3.523-16.804l0.002,0.002l-0.392-1.861l-15.385-15.848
				l-1.307-1.345l-0.615,1.501l0.022,0.023l-4.866,12.521l5.694,25.089l-5.678,16.697l6.462,25.095l-0.159,0.507l-6.319,20.098
				l0.289,1.307l0.016,0.006l6.041,26.016l-0.015-0.004l0.136,0.524l-0.153,0.504l0.013,0.003l-6.122,22.039l0,0l-0.204,0.738
				l7.307,27.369l-4.533,25.527l-0.56,0.433l-0.157,0.829l10.106-0.955l1.033-0.098l1.35,0.098l0.033-0.228l17.758-1.679v-0.467
				l-0.064-0.274L453.306,300.745z M447.345,275.161l-2.713-21.944l5.868,0.528L447.345,275.161z M439.764,167.259l-2.776,14.507
				l-3.916-19.024L439.764,167.259z M432.55,160.212l-0.085-0.414l3.655-13.106l3.702,18.585L432.55,160.212z M437.151,188.364
				l3.851,18.458l-7.143-2.892L437.151,188.364z M441.321,208.356l0.047,0.221l-0.303-0.322l-3.008,17.86l-4.325-20.783
				L441.321,208.356z M438.173,232.109l4.109,19.359l-7.959-0.762L438.173,232.109z M438.98,230.545l6.574,1.764l-2.481,17.59
				L438.98,230.545z M438.76,228.987l3.233-18.398l3.568,20.358L438.76,228.987z M441.814,205.218l-4.059-19.713l6.457,3.392v3.108
				l-0.119,1.19L441.814,205.218z M438.049,184.057l2.614-14.558l3.55,17.817L438.049,184.057z M437.139,145.278l6.343,5.219
				l-2.749,12.514L437.139,145.278z M436.794,143.482l3.142-13.66l3.503,19.313L436.794,143.482z M436.172,140.508l-3.665-18.085
				l6.69,5.514L436.172,140.508z M435.214,142.145l-7.207-6.099l3.536-12.331L435.214,142.145z M435.367,143.82l-3.403,13.542
				l-4.05-19.675L435.367,143.82z M432.086,164.082l3.944,18.906l-7.426-3.801l0.265-0.635L432.086,164.082z M436.404,184.794
				l-3.357,17.246l-4.442-21.345L436.404,184.794z M437.43,228.604l-8.071-2.326l3.668-18.496L437.43,228.604z M437.329,230.103
				l-3.975,19.044l-4.201-21.237L437.329,230.103z M433.637,254.454l4.396,22.255l-8.786-0.216L433.637,254.454z M434.165,252.274
				l8.449,0.761l-3.86,21.75L434.165,252.274z M443.636,254.783l2.989,22.137l-6.91-0.17L443.636,254.783z M446.366,234.958
				l4.066,17.29l-6.628-0.634L446.366,234.958z M446.064,228.604l-3.503-19.753l6.042,2.407L446.064,228.604z M448.3,209.777
				l-5.789-2.344l2.533-15.241L448.3,209.777z M444.856,185.713l-2.973-17.023l5.356,3.615L444.856,185.713z M446.515,169.938
				l-5.098-3.55l-0.076-0.374l2.743-12.921L446.515,169.938z M443.979,146.735l-3.192-17.488l5.548,4.571L443.979,146.735z
				 M446.073,132.546l-5.607-4.872l-0.029-0.144l2.292-11.274L446.073,132.546z M442.077,115.156l-2.048,10.387l-3.188-15.58
				L442.077,115.156z M439.256,126.622l-7.158-6.219l-0.032-0.159l3.388-11.517L439.256,126.622z M434.591,107.731l-2.999,10.175
				l-3.335-16.456L434.591,107.731z M426.899,101.161l0.097-0.267l3.633,18.232l-7.803-6.779L426.899,101.161z M423.372,114.895
				l7.541,6.215l-3.53,12.498L423.372,114.895z M427.051,139.944l4.012,19.231l-8.358-5.82L427.051,139.944z M423.208,156.084
				l7.807,5.27l-2.965,15.393L423.208,156.084z M427.791,183.196l4.244,19.996l-9.493-3.843L427.791,183.196z M422.753,200.957
				l9.565,3.813l-4.128,19.819L422.753,200.957z M428.238,228.861l4.324,21.677l-9.81-1.068L428.238,228.861z M422.753,251.065
				l10.148,1.096l-4.652,22.396L422.753,251.065z M424.803,302.616l3.55-22.599l4.459,21.811L424.803,302.616z M434.275,301.684
				l-0.236,0.023l-4.751-23.824l8.958,0.184L434.275,301.684z M435.783,301.535l3.043-21.033l4.247,20.315L435.783,301.535z
				 M439.476,278.092l7.086,0.146l-2.595,21.686L439.476,278.092z M444.886,300.641l2.805-20.175l4.018,19.503L444.886,300.641z"/>
		</g>
	</g>
</g>
<g id="chrysler_bldg">
	<g id="Layer_60" display="none">
		
			<image display="inline" overflow="visible" width="1001" height="1500" xlink:href="7CF969B7.jpg"  transform="matrix(0.3127 0 0 0.3127 350.4971 -289.0493)">
		</image>
	</g>
	<g id="Layer_64">
		<polygon fill="#678CC5" points="234.823,93.608 235.202,85.864 235.888,84.881 236.634,86.032 236.634,93.608 235.763,94.029 		
			"/>
		<path fill="#3E6387" d="M236.604,92.764c0,0,0.914,0.924,0.914,3.575l-1.756,1.136l-2.453-0.892c0,0,0.617-3.453,1.74-3.569
			c0.363-0.038,0.713,0.561,0.713,0.561S235.903,93.101,236.604,92.764z"/>
		<path fill="#678CC5" d="M238.628,101.509c0,0-0.494-4.425-1.186-6.381c-0.201-0.571-0.418-0.932-0.645-0.909
			c-1.006,0.098-1.035,7.632-1.035,7.632L238.628,101.509z"/>
		<path fill="#1D3349" d="M232.888,101.382c0,0-0.379-5.677,1.811-7.023c2.188-1.347,1.064,7.492,1.064,7.492L232.888,101.382z"/>
		<path fill="#3E6387" d="M232.327,102.324c0,0,0.105-0.34,0.299-0.77c0.518-1.153,1.662-2.951,3.076-0.591
			c0,0,1.848-3.398,3.494,2.088l-3.494,2.415L232.327,102.324z"/>
		<path fill="#678CC5" d="M235.702,108.202c0,0-0.582-7.118,1.941-6.82c2.525,0.297,3.031,9.683,3.031,9.683L235.702,108.202z"/>
		<path fill="#1D3349" d="M230.495,109.277c0,0,0.402-8.589,3.908-7.851c1.6,0.337,1.559,3.114,1.559,3.114v6.523L230.495,109.277z"
			/>
		<path fill="#3E6387" d="M229.864,109.497c0,0,3.986-5.285,6.18-1.899c0,0,1.73-2.892,4.191,0.961l-3.289,3.53l-5.363-1.108
			L229.864,109.497z"/>
		<path fill="#678CC5" d="M243.417,116.583c0,0-1.213-8.751-5.176-8.985c-1.615-0.096-1.863,2.818-1.863,2.818v6.089
			L243.417,116.583z"/>
		<path fill="#1D3349" d="M227.61,116.742c0,0-0.99-6.251,4.521-8.805c3.252-1.507,4.246,2.479,4.246,2.479v6.089L227.61,116.742z"
			/>
		<path fill="#2E4E6B" d="M236.94,124.436l-1.238-0.151l0.936-8.975c0,0,0.557-2.406,2.688-2.491s4.24,3.177,4.494,4.626
			c0.256,1.449-0.02,2.215-0.02,2.215L236.94,124.436z"/>
		<path fill="#3E6387" d="M228.28,115.676c0,0,2.248-2.987,5.348-2.646c1.477,0.162,2.998,2.389,2.998,2.389l-0.313,8.353
			C236.313,123.771,235.743,110.65,228.28,115.676z"/>
		<path fill="#1D3349" d="M225.591,125.882c0,0-1.496-10.292,6.146-11.992c6.666-1.483,4.191,12.143,4.191,12.143L225.591,125.882z"
			/>
		<path fill="#678CC5" d="M245.729,126.94c0,0-0.689-12.888-6.141-12.843c-4.207,0.034-2.984,14.21-2.984,14.21L245.729,126.94z"/>
		<path fill="#3E6387" d="M236.741,129.729c0,0,0.891-10.231-4.449-10.588c-5.725,0.155-7.436,7.389-7.436,7.389L236.741,129.729z"
			/>
		<path fill="#1D3349" d="M224.028,132.915c0,0-0.125-5.687,2.092-9.47c1.145-1.951,2.912-3.397,5.639-3.297
			c5.873,0.217,5.18,12.146,5.18,12.146L224.028,132.915z"/>
		<path fill="#2E4E6B" d="M236.87,129.997c0,0-1.107-9.61,3.164-10.619c4.271-1.008,5.967,7.605,5.967,7.605L236.87,129.997z"/>
		<path fill="#678CC5" d="M236.946,132.375c0,0-0.98-12.449,4.115-11.998c5.098,0.452,6.064,12.454,6.033,14.132
			c-0.031,1.677-0.031,1.677-0.031,1.677S234.38,137.049,236.946,132.375z"/>
		<path fill="#3E6387" d="M225.177,130.475c0,0,2.779-6.502,7.898-4.581c5.117,1.921,3.859,11.147,3.859,11.147
			S235.296,122.94,225.177,130.475z"/>
		<path fill="#1D3349" d="M236.946,157.852l-14.162,2.104V137.44c0,0,1.674-10.771,7.707-10.681c6.031,0.09,6.455,9.77,6.455,9.77
			V157.852z"/>
		<path fill="#2E4E6B" d="M236.948,133.055c0,0-0.002-7.516,4.551-7.161c3.014-0.012,4.859,5.765,4.859,5.765
			S240.155,122.604,236.948,133.055z"/>
		<path fill="#678CC5" d="M236.948,158.179v-24.438c0,0,0.07-6.455,5.016-6.397c4.945,0.059,6.621,12.1,5.689,13.089
			c-0.93,0.989-3.373,20.132-3.373,20.132L236.948,158.179z"/>
		<path fill="#2E4E6B" d="M244.862,132.294c0,0-5.682-1.233-5.793,2.955c-0.039,1.518,0.232,21.664,0.232,21.664l4.105,0.629
			l1.455-12.662V132.294z"/>
		<path fill="#3E6387" d="M235.255,157.307v-18.595c0,0,0.27-8.457-8.049-6.211l3.549,26.541L235.255,157.307z"/>
		<path fill="#2E4E6B" d="M236.948,158.179l-14.164,1.243l0.705-0.976l0.164-19.354c0,0,0.57-6.798,4.715-6.798
			c4.447,0,4.553,5.767,4.553,5.767l-0.064,19.135L236.948,158.179z"/>
		<polygon fill="#678CC5" points="236.122,85.977 235.655,60.185 235.655,86.322 		"/>
	</g>
	<g id="Layer_63">
		<polygon fill="#1D3349" points="232.876,156.203 236.546,157.437 236.546,164.755 231.946,166.169 		"/>
		<polygon fill="#2E4E6B" points="236.546,157.437 240.251,156.203 240.44,165.895 236.546,165.895 		"/>
		<path fill="#678CC5" d="M255.571,244.063v54.533l-10.051,6.964l-5.73-40.926l-5.004,2.86v-9.775l1.307-3.527l-0.264-90.201
			l4.422,1.098l0.002-8.93h1.627v-20.077c0,0,0.266-4.432,3.299-3.708s2.941,5.697,2.941,5.697l0.092,19.354l2.08,0.634
			l-0.182,8.683l3.438,0.633l0.182,76.06L255.571,244.063z"/>
	</g>
	<g id="Layer_61">
		<polygon fill="#36567C" points="248.233,278.646 248.233,306.046 241.019,312.045 240.601,284.276 		"/>
		<polygon fill="#36567C" points="266.688,265.013 266.688,310.396 261.075,314.679 261.075,268.942 		"/>
		<polygon fill="#36567C" points="245.521,267.084 245.521,278.646 240.009,282.151 240.009,270.782 		"/>
		<polygon fill="#36567C" points="263.263,256.086 263.263,264.313 258.763,266.86 258.763,258.793 		"/>
	</g>
	<g id="Layer_62">
		<polygon fill="#2E4E6B" points="261.075,268.942 251.39,265.34 251.39,304.584 261.075,314.679 		"/>
		<polygon fill="#2E4E6B" points="240.601,284.276 204.479,265.621 204.479,304.25 241.075,311.997 		"/>
		<polygon fill="#2E4E6B" points="240.009,270.782 208.265,256.9 208.265,265.621 240.009,282.151 		"/>
		<polygon fill="#2E4E6B" points="258.763,258.793 252.382,256.316 252.472,264.643 258.763,266.86 		"/>
		<polygon fill="#2E4E6B" points="234.786,257.72 214.935,249.807 214.935,258.528 234.786,267.254 		"/>
		<polyline fill="#1D3349" points="248.233,278.646 245.521,277.223 245.521,278.298 240.009,282.151 208.265,265.621 
			208.265,263.646 204.479,265.621 240.601,284.276 		"/>
		<polygon fill="#1D3349" points="245.521,267.084 239.233,264.397 234.786,267.254 214.935,258.528 214.935,253.166 208.265,256.9 
			240.009,270.782 		"/>
		<polygon fill="#1D3349" points="252.472,264.643 251.39,265.34 261.075,268.942 266.688,265.013 263.276,263.734 263.263,264.313 
			258.763,266.86 		"/>
		<polygon fill="#1D3349" points="252.382,256.316 258.763,258.793 263.263,256.086 255.571,253.393 255.622,254.424 		"/>
		<polygon fill="#1D3349" points="214.937,249.807 217.192,246.493 236.546,253.393 234.788,257.72 		"/>
		<polygon fill="#3E6387" points="217.19,246.493 236.546,253.393 235.829,163.991 232.714,164.646 232.876,156.203 
			219.903,157.841 219.849,165.852 217.19,166.429 		"/>
	</g>
</g>
<g id="thin_bldg">
	<polygon fill="#0E1A23" points="308.251,143.621 310.831,139.596 311.526,155.002 306.237,155.188 	"/>
	<polygon fill="#678CC5" points="262.496,185.859 257.107,193.414 258.666,302.752 285.134,301.82 	"/>
	<path fill="#9DB3DD" d="M264.383,123.812c0,0-0.408-4.576-4.967,12.21l4.312,169.15l7.592-1.368L264.383,123.812z"/>
	<path fill="#9DB3DD" d="M267.476,123.15c0,0-2.707-2.149-4.232,0.868l0.595,7.897l4.333,2.206l1.895-2.817L267.476,123.15z"/>
	<polygon fill="#0E1A23" points="267.594,132.509 266.456,132.548 263.396,131.54 268.64,304.04 272.567,306.254 284.159,170.505 	
		"/>
	<polygon fill="#9DB3DD" points="309.87,149.129 309.479,138.02 267.476,123.15 268.344,135.817 	"/>
	<polygon fill="#678CC5" points="267.161,131.8 312.302,147.805 314.115,199.398 273.095,159.561 268.086,158.105 	"/>
	<polygon fill="#5374A5" points="314.261,169.165 270.539,157.396 275.771,306.142 319.114,307.188 	"/>
	<polygon fill="#1D3349" points="270.539,157.396 268.075,160.654 272.567,306.254 275.771,306.142 	"/>
</g>
<g id="crooked_bldg">
	<g id="Layer_26">
		<polygon fill="#678CC5" points="66.973,274.295 121.017,246.177 134.489,257.007 75.394,297.492 		"/>
	</g>
	<g id="Layer_24">
		<polygon fill="#1D3349" points="134.489,257.007 133.694,297.954 75.589,304.778 79.504,285.245 		"/>
	</g>
	<g id="Layer_25">
		<polygon fill="#36567C" points="79.504,285.245 66.973,274.295 67.312,303.995 79.86,304.276 		"/>
	</g>
	<g id="Layer_27">
		<polygon fill="#2E4E6B" points="89.478,283.638 128.12,249.417 129.771,219.945 101.892,232.021 100.511,230.956 92.271,233.763 
					"/>
	</g>
	<g id="Layer_28">
		<polygon fill="#3E6387" points="92.271,233.763 77.665,225.555 75.173,270.045 89.478,283.638 		"/>
	</g>
	<g id="Layer_29">
		<polygon fill="#678CC5" points="77.665,225.555 120.47,214.399 129.771,219.945 101.892,232.021 100.511,230.956 92.271,233.763 
					"/>
	</g>
	<g id="Layer_42">
		<polygon fill="#9DB3DD" points="135.472,68.383 113.256,87.886 112.539,100.7 132.371,94.218 134.473,92.307 		"/>
	</g>
	<g id="Layer_39">
		<polygon fill="#3E6387" points="128.854,86.715 107.848,103 106.422,128.477 127.244,118.628 		"/>
	</g>
	<g id="Layer_40">
		<polygon fill="#1D3549" points="132.802,93.41 134.473,92.307 142.083,106.038 140.847,107.051 		"/>
	</g>
	<g id="Layer_41">
		<polygon fill="#678CC5" points="134.473,92.307 135.472,68.383 143.232,85.506 142.083,106.038 		"/>
	</g>
	<g id="Layer_36">
		<polygon fill="#9DB3DD" points="121.571,114.592 102.014,126.192 100.417,154.713 116.634,152.556 119.762,151.023 		"/>
	</g>
	<g id="Layer_37">
		<polygon fill="#1D3549" points="125.757,119.374 127.244,118.628 139.415,132.616 138.12,133.492 		"/>
	</g>
	<g id="Layer_38">
		<polygon fill="#2E4E6B" points="127.244,118.628 128.854,86.715 140.847,107.051 139.415,132.616 		"/>
	</g>
	<g id="Layer_32">
		<polygon fill="#2E4E6B" points="113.493,148.99 135.253,161.188 133.655,189.721 111.282,188.468 		"/>
	</g>
	<g id="Layer_33">
		<polygon fill="#3E6387" points="113.493,148.99 95.314,154.669 93.366,189.46 111.171,190.458 		"/>
	</g>
	<g id="Layer_34">
		<polyline fill="#1D3549" points="135.214,161.437 136.576,161.064 119.762,151.023 118.06,151.551 135.253,161.188 
			135.214,161.437 		"/>
	</g>
	<g id="Layer_35">
		<polygon fill="#678CC5" points="136.576,161.064 138.12,133.492 121.571,114.592 119.762,151.023 		"/>
	</g>
	<g id="Layer_30">
		<polygon fill="#678CC5" points="132.675,189.706 131.007,219.486 101.238,232.415 103.747,187.612 		"/>
	</g>
	<g id="Layer_31">
		<polygon fill="#9DB3DD" points="103.747,187.612 87.375,186.695 85.274,224.194 101.238,232.415 		"/>
	</g>
</g>
<g id="brown_bldg">
	<g id="Layer_21">
		<polyline fill="#3E6387" points="29.107,157.071 29.281,154.767 32.614,153.421 32.636,151.907 50.514,143.655 49.287,169.463 
			29.281,170.359 29.281,156.659 		"/>
		<polygon fill="#36567C" points="72.47,173.341 73.316,161.654 50.514,143.655 47.945,168.541 60.081,173.045 		"/>
	</g>
	<g id="Layer_20">
		<polyline fill="#8FA6CB" points="45.955,150.16 50.514,152.734 49.701,165.335 43.109,166.173 44.153,152.312 45.675,150.269 
			45.955,150.16 		"/>
		<polyline fill="#768EB2" points="57.178,152.312 50.514,152.734 48.961,170.996 57.178,169.044 57.178,152.312 		"/>
	</g>
	<g id="Layer_19">
		<polyline fill="#9DB3DD" points="50.514,157.029 44.954,158.95 45.955,150.16 28.332,157.029 26.93,164.878 22.724,166.45 
			0,301.302 36.242,299.525 50.513,157.134 		"/>
	</g>
	<g id="Layer_18">
		<polygon fill="#3E6387" points="43.109,231.088 50.533,157.029 75.445,173.368 72.659,233.071 		"/>
		<polygon fill="#3E6387" points="53.048,191.65 57.178,152.312 71.556,162.909 69.487,192.703 		"/>
	</g>
	<g id="Layer_15">
		<polyline fill="#3E6387" points="41.076,221.833 21.536,225.766 18.265,246.718 12.796,247.659 4.189,302.854 31.325,299.525 
			41.074,221.938 		"/>
	</g>
	<g id="Layer_16">
		<polygon fill="#2E4E6B" points="33.45,280.438 41.064,221.833 75.589,234.14 71.58,282.539 		"/>
	</g>
	<g id="Layer_17">
		<polyline fill="#36567C" points="38.052,275.872 23.516,278.093 20.941,299.799 35.803,300.614 35.803,300.614 38.037,275.993 		
			"/>
	</g>
	<g id="Layer_14">
		<polygon fill="#1D3349" points="35.803,300.614 38.052,275.872 46.772,277.186 44.431,300.529 		"/>
		<polygon fill="#1D3349" points="53.86,302.815 55.463,277.186 73.909,281.012 73.141,304.507 		"/>
		<polyline fill="#36567C" points="55.463,277.186 46.397,277.129 44.431,300.529 53.86,302.815 53.86,302.854 55.463,277.186 		"/>
	</g>
</g>
<g id="wtc">
	<g id="Layer_8">
		<path fill="#3E6387" d="M165.238,33.637c0,0,3.39-5.075,12.452-2.266c7.703,2.899,7.068,8.337,7.068,8.337l-19.521-5.618V33.637z"
			/>
	</g>
	<g id="Layer_9">
		<polygon fill="#3E6387" points="171.509,31.156 171.927,2.902 172.274,0.327 174.293,33.104 		"/>
	</g>
	<g id="Layer_10">
		<path fill="#2E4E6B" d="M171.564,27.429c0,0-1.36-2.31,1.2-2.31c2.718,0,1.188,2.465,1.188,2.465S172.831,26.628,171.564,27.429z"
			/>
		<path fill="#2E4E6B" d="M171.629,23.264c0,0-1.299-2.275,1.009-2.275c2.047,0,1.046,2.228,1.046,2.228
			S172.626,22.537,171.629,23.264z"/>
		<path fill="#2E4E6B" d="M171.692,18.803c0,0-0.978-2.086,0.905-2.087c1.616,0,0.813,2.054,0.813,2.054
			S172.539,18.242,171.692,18.803z"/>
		<path fill="#2E4E6B" d="M171.759,14.075c0,0-0.839-1.735,0.644-1.735c1.446,0,0.707,1.714,0.707,1.714
			S172.605,13.515,171.759,14.075z"/>
		<path fill="#2E4E6B" d="M171.816,10.064c0,0-0.732-1.351,0.481-1.429c1.174-0.076,0.604,1.429,0.604,1.429
			S172.42,9.538,171.816,10.064z"/>
		<path fill="#2E4E6B" d="M100.864,1.051c0,0-0.722-1.051,0.348-1.051c1,0,0.379,1.051,0.379,1.051S101.297,0.594,100.864,1.051z"/>
	</g>
	<g id="Layer_6">
		<polygon fill="#9DB3DD" points="162.757,32.214 190.683,38.714 195.394,262.92 171.267,262.92 		"/>
	</g>
	<g id="Layer_7">
		<polygon fill="#9DB3DD" points="162.757,32.214 157.7,50.035 139.572,244.652 165.238,240.541 		"/>
	</g>
	<g id="Layer_4">
		<path fill="#678CC5" d="M138.056,258.55l24.702-226.335l27.166,221.311C189.923,253.525,157.145,294.005,138.056,258.55z"/>
	</g>
	<g id="Layer_5">
		<path fill="#678CC5" d="M190.683,38.714l-0.76,214.812c0,0,7.682,22.141,21.049,9.102c0.096-0.092-0.285,0.285,0,0L190.683,38.714
			z"/>
	</g>
	<g id="Layer_3">
		<path fill="#1D3349" d="M189.923,253.525l21.336,8.817l2.182,45.137l-22.758-0.664
			C190.683,306.815,161.193,273.06,189.923,253.525z"/>
	</g>
	<g id="Layer_2">
		<polygon fill="#36567C" points="134.832,297.713 138.056,258.55 189.923,253.525 190.683,306.815 		"/>
	</g>
	<polygon fill="#FFFFFF" points="162.37,33.58 188.952,253.619 189.923,253.525 190.948,253.948 191.493,47.52 190.686,38.74 
		189.923,253.525 162.757,32.214 	"/>
</g>
<g id="land" display="none">
	<path display="inline" fill="#678CC5" d="M715.211,294.145l-2.383,3.599l-39,6.474l-16.627,23.911l-7.377-5.313l-11.213,20.136
		l-14.215-6.473l-9.867,12.976l-3.557-4.625l-6.691,23.814l-2.648-6.708l-7.979,11.468l-5.311-6.298l-9.129,20.353l-6.814-17.276
		l-6.453,17.276l-6.451-6.149l-5.693,19.686l-11.994-9.733l-19.365,27.197l-2.404-4.175l-10.617,16.891l-12.17-24.481l-3.037,6.073
		l-1.896-3.796l-12.525,28.845l-14.717-11.766l-13.514,7.591l-11.554-18.977l-2.84,7.335l-4.098-7.715l-12.432,16.891
		l-12.957-11.197l-7.97-30.027l-4.555,8.014l-4.554-16.654l-5.656,1.816l-5.73-6.368l-13.663,10.701l-8.729-17.276l-4.645,11.127
		l-3.786-16.744l-9.027,5.617l-4.555-4.201l-11.386,13.511l-16.7-23.244v-6.018l-13.063-19.443l-2.893,0.379l-4.119-3.795
		l-8.855,4.934l-6.746-9.109l-2.855,5.314l-7.013-10.248l-36.056-19.489h-4.934l-2.277-4.626l-2.355-2.072
		C215.559,292.072,685.332,284.832,715.211,294.145z"/>
	<polygon display="inline" fill="#4E71A6" points="657.201,328.128 659.697,311.049 668.811,294.729 629.709,292.072 
		629.709,316.362 646.988,300.422 641.301,314.465 	"/>
	<polygon display="inline" fill="#4E71A6" points="638.611,317.501 637.408,333.441 639.957,342.95 624.396,336.478 
		629.709,330.226 	"/>
	<polygon display="inline" fill="#4E71A6" points="614.529,349.453 610.973,330.226 614.529,303.838 604.66,306.874 
		606.834,313.326 579.215,340.652 568.861,357.302 579.215,387.457 580.75,356.246 585.518,339.135 598.588,330.226 
		588.344,367.104 593.654,373.402 595.895,370.181 593.654,360.656 603.521,334.201 609.215,342.95 601.633,361.935 
		604.281,368.643 610.973,344.828 	"/>
	<polygon display="inline" fill="#4E71A6" points="591.695,303.838 575.057,340.652 574.959,360.656 568.861,375.079 
		565.947,387.457 559.496,381.308 563.727,353.557 559.496,351.003 551.525,367.105 553.803,400.993 541.809,391.26 
		537.998,387.457 531.779,394.225 538.754,379.49 537.998,373.402 526.203,373.402 540.129,361.935 540.129,368.643 
		554.182,349.453 547.73,349.453 539.598,324.948 554.754,341.457 554.182,321.676 568.861,310.1 565.947,328.128 565.947,337.616 
		568.861,345.647 	"/>
	<polygon display="inline" fill="#4E71A6" points="485.148,323.25 486.65,366.09 504.414,317.501 511.244,324.544 501.68,370.998 
		523.102,336.586 528.83,338.75 536.621,317.501 536.621,339.021 511.994,394.225 523.102,376.756 524.793,406.949 520.113,396.665 
		509.422,431.173 496.254,408.687 502.793,394.225 498.463,391.26 493.027,373.275 480.061,402.89 481.684,421.997 494.402,396.665 
		494.215,412.765 491.883,409.971 479.793,437.813 465.076,426.048 451.563,433.639 467.221,409.711 459.158,408.572 
		453.268,410.467 479.82,385.117 	"/>
	<polygon display="inline" fill="#4E71A6" points="378.193,319.43 370.091,329.311 382.101,342.559 364.489,360.549 
		365.553,387.457 379.216,376.756 376.015,361.356 379.57,352.415 384.847,341.818 373.23,329.779 	"/>
	<polygon display="inline" fill="#4E71A6" points="390.603,381.308 395.157,397.962 401.761,387.457 396.182,387.457 394.867,378 
		396.182,363.602 	"/>
	<polygon display="inline" fill="#4E71A6" points="390.603,366.771 403.098,360.307 403.098,349.715 	"/>
	<path display="inline" fill="#1D3349" d="M211.502,292.894c0,0,0-4.692,3.129-5.944h504.021c0,0-0.908,4.428-2.191,9.072
		l-1.25-1.877l-5.633,0.626l-0.625-1.563l-32.852,5.563l-15.33-3.374l-37.855,3.374l-10.018,1.681l-5.635-6.738l-33.957,0.503
		l-24.852,13.069l-26.09-10.877h-37.734l-17.41,12.129l-24.052-9.434l-20.396,9.434l-4.227-2.504l-30.054,2.504l-13.29-10.794
		l-13.839,8.29l-34.408-14.746l-18.282,6.677l-19.721-4.521l-32.343,7.008l-32.426-5.231L211.502,292.894z"/>
	<line display="inline" fill="#678CC5" x1="386.643" y1="348.155" x2="390.603" y2="370.334"/>
	<polygon display="inline" fill="#4E71A6" points="420.638,431.173 407.682,419.976 401.761,396.279 422.639,366.771 412.2,395.803 
			"/>
	<polygon display="inline" fill="#4E71A6" points="409.27,326.095 438.872,352.415 442.931,321.32 448.183,330.226 452.241,323.945 
		459.881,330.226 463.461,323.945 468.236,345.647 474.92,335.166 476.352,340.418 480.648,338.031 477.068,356.651 471.1,348.155 
		467.221,352.415 468.713,365.246 448.421,405.352 453.268,373.602 454.389,348.155 444.959,351.399 431.949,363.336 	"/>
	<polygon display="inline" fill="#4E71A6" points="435.769,372.407 437.201,409.172 437.168,421.997 440.008,414.662 	"/>
	<polygon display="inline" fill="#4E71A6" points="393.753,317.501 390.603,352.415 396.85,341.373 401.761,345.647 	"/>
	<polygon display="inline" fill="#4E71A6" points="347.44,308.537 347.44,331.346 361.047,359.244 361.047,330.226 363.196,319.43 	
		"/>
	<polygon display="inline" fill="#4E71A6" points="351.846,379.836 355.318,358.242 365.505,386.246 356.824,370.181 	"/>
	<polygon display="inline" fill="#4E71A6" points="348.892,366.771 351.846,364.768 347.44,340.418 346.485,361.902 	"/>
	<polygon display="inline" fill="#4E71A6" points="339.084,315.112 343.382,346.625 339.365,370.181 334.811,365.979 
		323.425,379.49 323.425,359.244 320.464,355.457 322.851,308.537 331.923,350.683 	"/>
	<polygon display="inline" fill="#4E71A6" points="278.542,317.501 275.096,322.627 271.915,315.203 268.203,313.613 
		264.756,302.742 260.514,308.537 227.904,291.077 217.914,294.145 220.191,298.771 226.313,299.296 261.181,318.26 
		268.194,328.508 271.384,324.482 277.339,331.688 	"/>
	<polygon display="inline" fill="#4E71A6" points="304.26,317.501 295.511,323.688 290.208,325.543 287.292,321.32 282.254,317.501 
		278.542,313.348 282.254,308.537 287.822,298.771 285.701,315.469 291.401,308.537 293.39,317.501 	"/>
	<polygon display="inline" fill="#4E71A6" points="308.767,331.688 310.357,345.428 323.425,379.49 306.725,356.246 	"/>
</g>
<g id="crooked_bldg_copy" display="none">
	<polygon display="inline" fill="#678CC5" points="-8.549,450.238 74.791,416.821 92.982,434.66 0.441,485.482 	"/>
	<polygon display="inline" fill="#1D3349" points="92.982,434.66 84.848,486.938 -3.928,523.84 1.323,477.743 	"/>
	<polygon display="inline" fill="#36567C" points="1.323,477.743 -8.549,450.238 -12.971,492.279 -3.928,523.84 	"/>
	<polygon display="inline" fill="#2E4E6B" points="23.106,467.201 84.74,422.604 91.43,379.616 48.789,393.291 46.918,391.528 
		34.426,394.453 	"/>
	<polygon display="inline" fill="#3E6387" points="34.426,394.453 14.191,380.298 4.094,445.192 23.106,467.201 	"/>
	<polygon display="inline" fill="#678CC5" points="14.191,380.298 78.59,370.135 91.43,379.616 48.789,393.291 46.918,391.528 
		34.426,394.453 	"/>
	<polygon display="inline" fill="#9DB3DD" points="121.74,158.141 86.332,183.528 83.424,202.22 113.451,195.585 116.811,193.085 	
		"/>
	<polygon display="inline" fill="#3E6387" points="109.379,184.07 76.211,204.913 70.43,242.075 102.396,230.644 	"/>
	<polygon display="inline" fill="#1D3549" points="114.201,194.461 116.811,193.085 125.983,214.328 124.024,215.635 	"/>
	<polygon display="inline" fill="#678CC5" points="116.811,193.085 121.74,158.141 130.644,184.378 125.983,214.328 	"/>
	<polygon display="inline" fill="#9DB3DD" points="94.66,223.904 64.294,238.086 57.82,279.688 81.92,278.871 86.73,277.077 	"/>
	<polygon display="inline" fill="#1D3549" points="100.107,231.523 102.396,230.644 118.222,252.925 116.195,254.021 	"/>
	<polygon display="inline" fill="#2E4E6B" points="102.396,230.644 109.379,184.07 124.024,215.635 118.222,252.925 	"/>
	<polygon display="inline" fill="#2E4E6B" points="77.83,273.188 107.98,294.23 101.504,335.847 68.869,330.769 	"/>
	<polygon display="inline" fill="#3E6387" points="77.83,273.188 50.343,278.885 42.447,329.631 68.418,333.672 	"/>
	<polyline display="inline" fill="#1D3549" points="107.886,294.588 109.938,294.239 86.73,277.077 84.156,277.604 107.98,294.23 
		107.886,294.588 	"/>
	<polygon display="inline" fill="#678CC5" points="109.938,294.239 116.195,254.021 94.66,223.904 86.73,277.077 	"/>
	<polygon display="inline" fill="#678CC5" points="100.068,335.684 93.309,379.124 47.773,393.774 57.941,328.424 	"/>
	<polygon display="inline" fill="#9DB3DD" points="57.941,328.424 34.061,324.707 25.549,379.404 47.773,393.774 	"/>
</g>
</svg>
