<?xml version="1.0" encoding="utf-8"?>
<!-- Generator: Adobe Illustrator 16.0.0, SVG Export Plug-In . SVG Version: 6.00 Build 0)  -->
<!DOCTYPE svg PUBLIC "-//W3C//DTD SVG 1.1//EN" "http://www.w3.org/Graphics/SVG/1.1/DTD/svg11.dtd">
<svg version="1.1" xmlns="http://www.w3.org/2000/svg" xmlns:xlink="http://www.w3.org/1999/xlink" x="0px" y="0px"
	 width="270.72px" height="137.456px" viewBox="0 0 270.72 137.456" enable-background="new 0 0 270.72 137.456"
	 xml:space="preserve">
<g id="Layer_67">
	
		<rect x="-174.211" y="-328.417" display="none" fill="#7DD1EC" stroke="#FFFFFF" stroke-miterlimit="10" width="693" height="533.872"/>
	<rect x="511.722" y="205.455" stroke="#FFFFFF" stroke-miterlimit="10" width="0" height="6.641"/>
	<g>
		<path fill="#896228" d="M86.192,54.663H74.19V36.645H60.313v18.019H48.311v-44.2h12.002V26.85H74.19V10.463h12.002V54.663z"/>
		<path fill="#896228" d="M137.104,32.503c0,7.437-1.824,13.091-5.473,16.96c-3.648,3.87-8.989,5.805-16.023,5.805
			c-6.934,0-12.25-1.944-15.948-5.835c-3.699-3.89-5.548-9.554-5.548-16.99c0-7.356,1.839-12.975,5.518-16.854
			s9.024-5.82,16.039-5.82c7.034,0,12.365,1.925,15.993,5.774C135.29,19.393,137.104,25.046,137.104,32.503z M106.69,32.503
			c0,8.546,2.973,12.818,8.919,12.818c3.023,0,5.265-1.038,6.727-3.114c1.461-2.075,2.192-5.311,2.192-9.704
			c0-4.414-0.741-7.674-2.222-9.78s-3.693-3.159-6.636-3.159C109.683,19.563,106.69,23.876,106.69,32.503z"/>
		<path fill="#896228" d="M164.343,54.663l-9.039-31.835h-0.271c0.423,5.422,0.635,9.635,0.635,12.638v19.197h-10.582v-44.2h15.902
			l9.221,31.382h0.242l9.039-31.382h15.934v44.2h-10.975V35.284c0-1.008,0.016-2.126,0.045-3.356
			c0.031-1.229,0.166-4.242,0.408-9.039h-0.271l-8.919,31.774H164.343z"/>
		<path fill="#896228" d="M231.188,54.663h-26.241v-44.2h26.241v9.584h-14.3V27h13.242v9.584h-13.242v8.344h14.3V54.663z"/>
	</g>
	<g>
		<path fill="#54B848" d="M80.379,54.663H68.376V36.645H54.5v18.019H42.498v-44.2H54.5V26.85h13.876V10.463h12.002V54.663z"/>
		<path fill="#54B848" d="M131.291,32.503c0,7.437-1.824,13.091-5.472,16.96c-3.648,3.87-8.989,5.805-16.023,5.805
			c-6.934,0-12.25-1.944-15.948-5.835c-3.699-3.89-5.548-9.554-5.548-16.99c0-7.356,1.839-12.975,5.518-16.854
			s9.024-5.82,16.039-5.82c7.034,0,12.365,1.925,15.993,5.774C129.477,19.393,131.291,25.046,131.291,32.503z M100.876,32.503
			c0,8.546,2.973,12.818,8.919,12.818c3.023,0,5.265-1.038,6.727-3.114c1.461-2.075,2.192-5.311,2.192-9.704
			c0-4.414-0.741-7.674-2.222-9.78s-3.693-3.159-6.636-3.159C103.87,19.563,100.876,23.876,100.876,32.503z"/>
		<path fill="#54B848" d="M158.53,54.663l-9.04-31.835h-0.272c0.424,5.422,0.635,9.635,0.635,12.638v19.197h-10.58v-44.2h15.902
			l9.221,31.382h0.242l9.039-31.382h15.932v44.2h-10.974V35.284c0-1.008,0.015-2.126,0.046-3.356
			c0.029-1.229,0.166-4.242,0.407-9.039h-0.272l-8.918,31.774H158.53z"/>
		<path fill="#54B848" d="M225.374,54.663h-26.242v-44.2h26.242v9.584h-14.3V27h13.242v9.584h-13.242v8.344h14.3V54.663z"/>
	</g>
</g>
<g id="chrysler_bldg" display="none">
	<g id="Layer_60">
		
			<image display="inline" overflow="visible" width="1001" height="1500" xlink:href="DAD92187.jpg"  transform="matrix(0.3127 0 0 0.3127 29.2344 -536.2485)">
		</image>
	</g>
	<g id="Layer_64" display="inline">
		<polygon fill="#EFD97F" points="230.344,-131.501 230.723,-139.245 231.408,-140.229 232.154,-139.077 232.154,-131.501 
			231.283,-131.08 		"/>
		<path fill="#B7A44D" d="M232.125-132.346c0,0,0.914,0.924,0.914,3.575l-1.756,1.136l-2.453-0.892c0,0,0.617-3.453,1.74-3.569
			c0.363-0.038,0.713,0.561,0.713,0.561S231.424-132.009,232.125-132.346z"/>
		<path fill="#EFD97F" d="M234.148-123.601c0,0-0.494-4.425-1.186-6.381c-0.201-0.571-0.418-0.932-0.645-0.909
			c-1.006,0.098-1.035,7.632-1.035,7.632L234.148-123.601z"/>
		<path fill="#9B893D" d="M228.408-123.728c0,0-0.379-5.677,1.811-7.023c2.188-1.347,1.064,7.492,1.064,7.492L228.408-123.728z"/>
		<path fill="#B7A44D" d="M227.848-122.785c0,0,0.105-0.34,0.299-0.77c0.518-1.153,1.662-2.951,3.076-0.591
			c0,0,1.848-3.398,3.494,2.088l-3.494,2.415L227.848-122.785z"/>
		<path fill="#EFD97F" d="M231.223-116.907c0,0-0.582-7.118,1.941-6.82c2.525,0.297,3.031,9.683,3.031,9.683L231.223-116.907z"/>
		<path fill="#9B893D" d="M226.016-115.832c0,0,0.402-8.589,3.908-7.851c1.6,0.337,1.559,3.114,1.559,3.114v6.523L226.016-115.832z"
			/>
		<path fill="#B7A44D" d="M225.385-115.612c0,0,3.986-5.285,6.18-1.899c0,0,1.73-2.892,4.191,0.961l-3.289,3.53l-5.363-1.108
			L225.385-115.612z"/>
		<path fill="#EFD97F" d="M238.938-108.526c0,0-1.213-8.751-5.176-8.985c-1.615-0.096-1.863,2.818-1.863,2.818v6.089
			L238.938-108.526z"/>
		<path fill="#9B893D" d="M223.131-108.367c0,0-0.99-6.251,4.521-8.805c3.252-1.507,4.246,2.479,4.246,2.479v6.089L223.131-108.367z
			"/>
		<path fill="#847431" d="M232.461-100.674l-1.238-0.151l0.936-8.975c0,0,0.557-2.406,2.688-2.491s4.24,3.177,4.494,4.626
			c0.256,1.449-0.02,2.215-0.02,2.215L232.461-100.674z"/>
		<path fill="#B7A44D" d="M223.801-109.434c0,0,2.248-2.987,5.348-2.646c1.477,0.162,2.998,2.389,2.998,2.389l-0.313,8.353
			C231.834-101.339,231.264-114.459,223.801-109.434z"/>
		<path fill="#9B893D" d="M221.111-99.228c0,0-1.496-10.292,6.146-11.992c6.666-1.483,4.191,12.143,4.191,12.143L221.111-99.228z"/>
		<path fill="#EFD97F" d="M241.25-98.169c0,0-0.689-12.888-6.141-12.843c-4.207,0.034-2.984,14.21-2.984,14.21L241.25-98.169z"/>
		<path fill="#B7A44D" d="M232.262-95.381c0,0,0.891-10.231-4.449-10.588c-5.725,0.155-7.436,7.389-7.436,7.389L232.262-95.381z"/>
		<path fill="#9B893D" d="M219.549-92.194c0,0-0.125-5.687,2.092-9.47c1.145-1.951,2.912-3.397,5.639-3.297
			c5.873,0.217,5.18,12.146,5.18,12.146L219.549-92.194z"/>
		<path fill="#847431" d="M232.391-95.112c0,0-1.107-9.61,3.164-10.619c4.271-1.008,5.967,7.605,5.967,7.605L232.391-95.112z"/>
		<path fill="#EFD97F" d="M232.467-92.734c0,0-0.98-12.449,4.115-11.998c5.098,0.452,6.064,12.454,6.033,14.132
			c-0.031,1.677-0.031,1.677-0.031,1.677S229.9-88.061,232.467-92.734z"/>
		<path fill="#B7A44D" d="M220.697-94.635c0,0,2.779-6.502,7.898-4.581c5.117,1.921,3.859,11.147,3.859,11.147
			S230.816-102.169,220.697-94.635z"/>
		<path fill="#9B893D" d="M232.467-67.258l-14.162,2.104v-22.515c0,0,1.674-10.771,7.707-10.681c6.031,0.09,6.455,9.77,6.455,9.77
			V-67.258z"/>
		<path fill="#847431" d="M232.469-92.055c0,0-0.002-7.516,4.551-7.161c3.014-0.012,4.859,5.765,4.859,5.765
			S235.676-102.505,232.469-92.055z"/>
		<path fill="#EFD97F" d="M232.469-66.931v-24.438c0,0,0.07-6.455,5.016-6.397c4.945,0.059,6.621,12.1,5.689,13.089
			c-0.93,0.989-3.373,20.132-3.373,20.132L232.469-66.931z"/>
		<path fill="#847431" d="M240.383-92.815c0,0-5.682-1.233-5.793,2.955c-0.039,1.518,0.232,21.664,0.232,21.664l4.105,0.629
			l1.455-12.662V-92.815z"/>
		<path fill="#B7A44D" d="M230.775-67.803v-18.595c0,0,0.27-8.457-8.049-6.211l3.549,26.541L230.775-67.803z"/>
		<path fill="#9B893D" d="M232.469-66.931l-14.164,1.243l0.705-0.976l0.164-19.354c0,0,0.57-6.798,4.715-6.798
			c4.447,0,4.553,5.767,4.553,5.767l-0.064,19.135L232.469-66.931z"/>
		<polygon fill="#EFD97F" points="231.643,-139.133 231.176,-164.924 231.176,-138.787 		"/>
	</g>
	<g id="Layer_63" display="inline">
		<polygon fill="#9B893D" points="228.396,-68.906 232.066,-67.673 232.066,-60.354 227.467,-58.94 		"/>
		<polygon fill="#847431" points="232.066,-67.673 235.771,-68.906 235.961,-59.215 232.066,-59.215 		"/>
		<path fill="#EFD97F" d="M251.092,18.954v54.533l-10.051,6.964l-5.73-40.926l-5.004,2.86V32.61l1.307-3.527l-0.264-90.201
			l4.422,1.098l0.002-8.93h1.627v-20.077c0,0,0.266-4.432,3.299-3.708s2.941,5.697,2.941,5.697l0.092,19.354l2.08,0.634
			l-0.182,8.683l3.438,0.633l0.182,76.06L251.092,18.954z"/>
	</g>
	<g id="Layer_61" display="inline">
		<polygon fill="#B7A44D" points="243.754,53.537 243.754,80.937 236.539,86.936 236.121,59.167 		"/>
		<polygon fill="#36567C" points="262.209,39.903 262.209,85.286 256.596,89.569 256.596,43.833 		"/>
		<polygon fill="#B7A44D" points="241.041,41.975 241.041,53.537 235.529,57.042 235.529,45.673 		"/>
		<polygon fill="#36567C" points="258.783,30.977 258.783,39.203 254.283,41.751 254.283,33.684 		"/>
	</g>
	<g id="Layer_62" display="inline">
		<polygon fill="#847431" points="256.596,43.833 246.91,40.23 246.91,79.475 256.596,89.569 		"/>
		<polygon fill="#847431" points="236.121,59.167 200,40.512 200,79.141 236.596,86.888 		"/>
		<polygon fill="#847431" points="235.529,45.673 203.785,31.791 203.785,40.512 235.529,57.042 		"/>
		<polygon fill="#847431" points="254.283,33.684 247.902,31.207 247.992,39.533 254.283,41.751 		"/>
		<polygon fill="#847431" points="230.307,32.61 210.455,24.697 210.455,33.419 230.307,42.145 		"/>
		<polyline fill="#9B893D" points="243.754,53.537 241.041,52.113 241.041,53.188 235.529,57.042 203.785,40.512 203.785,38.536 
			200,40.512 236.121,59.167 		"/>
		<polygon fill="#9B893D" points="241.041,41.975 234.754,39.288 230.307,42.145 210.455,33.419 210.455,28.057 203.785,31.791 
			235.529,45.673 		"/>
		<polygon fill="#9B893D" points="247.992,39.533 246.91,40.23 256.596,43.833 262.209,39.903 258.797,38.625 258.783,39.203 
			254.283,41.751 		"/>
		<polygon fill="#9B893D" points="247.902,31.207 254.283,33.684 258.783,30.977 251.092,28.283 251.143,29.314 		"/>
		<polygon fill="#9B893D" points="210.457,24.697 212.713,21.384 232.066,28.283 230.309,32.61 		"/>
		<polygon fill="#B7A44D" points="212.711,21.384 232.066,28.283 231.35,-61.118 228.234,-60.464 228.396,-68.906 215.424,-67.269 
			215.369,-59.258 212.711,-58.681 		"/>
	</g>
</g>
<g id="empire_st" display="none">
	<g id="Layer_59" display="inline">
		<polygon fill="#171C16" points="261.66,-144.595 262.98,-170.098 264.773,-171.359 265.695,-197.83 267.057,-171.301 
			268.846,-170.227 272.885,-144.039 		"/>
		<path fill="#2D3528" d="M258.352-138.194c0,0-0.338-4.377,0.271-6.605c0.754-2.756,2.713-3.286,8.383-3.407
			c3.838-0.082,8.184,0.438,9.295,2.257c2.125,3.478,1.16,7.896,1.16,7.896L258.352-138.194z"/>
	</g>
	<g id="Layer_57" display="inline">
		<polygon fill="#171C16" points="254.844,-122.873 254.773,-131.737 260.227,-143.939 260.373,-125.481 		"/>
	</g>
	<g id="Layer_58" display="inline">
		<polyline fill="#5B6B4F" points="260.227,-143.939 280.314,-141.703 280.75,-131.501 260.158,-131.958 260.064,-143.579 		"/>
	</g>
	<g id="Layer_56" display="inline">
		<polygon fill="#B6CDD7" points="253.607,-124.008 254.834,-124.018 254.852,-121.749 253.588,-121.481 		"/>
	</g>
	<g id="Layer_55" display="inline">
		<polygon fill="#4D5648" points="260.457,-115.004 260.283,-136.637 285.051,-133.497 285.836,-107.151 		"/>
	</g>
	<g id="Layer_48" display="inline">
		<polygon fill="#171C16" points="252.416,21 252.279,-103.639 253.768,-103.651 253.615,-122.99 255.424,-125.442 256.287,-92.447 
			256.625,23.269 		"/>
		<polygon fill="#3F4C35" points="260.283,-136.637 255.379,-126.421 255.693,-109.16 260.445,-116.283 		"/>
		<polygon fill="#3F4C35" points="253.607,-124.008 250.865,-119.098 250.381,-99.486 252.279,-103.639 253.768,-103.651 		"/>
	</g>
	<g id="Layer_52" display="inline">
		<polygon fill="#5B6B4F" points="258.523,-116.521 287.732,-112.92 295.268,34.866 259.01,36.505 		"/>
		<polygon fill="#2D3528" points="258.523,-116.521 255.561,-110.035 254.85,31.679 259.01,36.505 		"/>
	</g>
	<g id="Layer_53" display="inline">
		<polygon fill="#2D3528" points="249.322,18.417 244.773,16.475 245.773,68.706 249.773,74.706 		"/>
		<polygon fill="#4D5648" points="249.301,18.337 255.49,18.287 255.18,73.105 249.773,74.706 		"/>
	</g>
	<g id="Layer_51" display="inline">
		<polygon fill="#4D5648" points="259.623,20.942 274.193,20.826 274.703,84.797 260.129,84.417 		"/>
		<polygon fill="#2D3528" points="259.629,21.587 253.574,19.002 254.59,77.596 260.129,84.417 		"/>
		<polygon fill="#3F4C35" points="253.574,19.002 266.822,18.896 274.193,20.826 259.629,21.587 		"/>
		<polygon fill="#3F4C35" points="244.773,16.475 250.305,16.251 255.49,18.287 249.322,18.417 		"/>
		<g id="Layer_54">
			<polygon fill="#2D3528" points="252.279,-103.639 249.316,-97.154 248.242,16.334 250.129,17.086 252.385,17.067 			"/>
		</g>
	</g>
	<g id="Layer_49" display="inline">
		<polygon fill="#4D5648" points="288.789,19.402 303.359,19.285 303.531,40.894 288.965,41.558 		"/>
		<polygon fill="#2D3528" points="288.793,20.046 286.398,18.577 286.365,39.485 288.965,41.558 		"/>
		<polygon fill="#3F4C35" points="286.398,18.577 294.406,17.973 294.357,17.025 303.359,19.285 288.793,20.046 		"/>
	</g>
	<g id="Layer_50" display="inline">
		<g id="Layer_45">
			<polygon fill="#4D5648" points="267.555,34.851 303.822,34.561 304.246,87.781 267.99,89.419 			"/>
		</g>
		<g id="Layer_46">
			<polygon fill="#2D3528" points="267.566,36.437 264.146,34.719 263.828,84.593 267.99,89.419 			"/>
		</g>
		<g id="Layer_47">
			<polygon fill="#3F4C35" points="264.146,34.719 297.533,32.976 303.822,34.561 267.566,36.437 			"/>
		</g>
	</g>
</g>
<g id="crooked_bldg" display="none">
	<g id="Layer_26" display="inline">
		<polygon fill="#666462" points="-22.545,32.072 31.499,3.954 44.971,14.784 -14.125,55.27 		"/>
	</g>
	<g id="Layer_24" display="inline">
		<polygon fill="#262626" points="44.971,14.784 44.175,55.731 -14.25,63.581 -10.014,43.022 		"/>
	</g>
	<g id="Layer_25" display="inline">
		<polygon fill="#474647" points="-10.014,43.022 -22.545,32.072 -21.822,55.541 -9.641,55.131 		"/>
	</g>
	<g id="Layer_27" display="inline">
		<polygon fill="#868483" points="-0.041,41.415 38.602,7.194 40.252,-22.277 12.373,-10.201 10.993,-11.267 2.753,-8.46 		"/>
	</g>
	<g id="Layer_28" display="inline">
		<polygon fill="#C4C3C3" points="2.753,-8.46 -11.854,-16.668 -14.345,27.822 -0.041,41.415 		"/>
	</g>
	<g id="Layer_29" display="inline">
		<polygon fill="#666462" points="-11.854,-16.668 30.951,-27.823 40.252,-22.277 12.373,-10.201 10.993,-11.267 2.753,-8.46 		"/>
	</g>
	<g id="Layer_42" display="inline">
		<polygon fill="#ECEBEA" points="45.953,-173.84 23.738,-154.337 23.021,-141.522 42.853,-148.005 44.954,-149.916 		"/>
	</g>
	<g id="Layer_39" display="inline">
		<polygon fill="#C4C3C3" points="39.335,-155.508 18.33,-139.223 16.904,-113.746 37.726,-123.595 		"/>
	</g>
	<g id="Layer_40" display="inline">
		<polygon fill="#0B0D0D" points="43.284,-148.813 44.954,-149.916 52.564,-136.185 51.329,-135.172 		"/>
	</g>
	<g id="Layer_41" display="inline">
		<polygon fill="#666462" points="44.954,-149.916 45.953,-173.84 53.713,-156.717 52.564,-136.185 		"/>
	</g>
	<g id="Layer_36" display="inline">
		<polygon fill="#ECEBEA" points="32.053,-127.631 12.495,-116.03 10.898,-87.51 27.115,-89.667 30.244,-91.199 		"/>
	</g>
	<g id="Layer_37" display="inline">
		<polygon fill="#0B0D0D" points="36.239,-122.849 37.726,-123.595 49.896,-109.606 48.602,-108.73 		"/>
	</g>
	<g id="Layer_38" display="inline">
		<polygon fill="#868483" points="37.726,-123.595 39.335,-155.508 51.329,-135.172 49.896,-109.606 		"/>
	</g>
	<g id="Layer_32" display="inline">
		<polygon fill="#868483" points="23.974,-93.232 45.735,-81.035 44.137,-52.502 21.763,-53.755 		"/>
	</g>
	<g id="Layer_33" display="inline">
		<polygon fill="#C4C3C3" points="23.974,-93.232 5.795,-87.554 3.847,-52.763 21.652,-51.765 		"/>
	</g>
	<g id="Layer_34" display="inline">
		<polyline fill="#0B0D0D" points="45.695,-80.786 47.058,-81.158 30.244,-91.199 28.541,-90.672 45.735,-81.035 45.695,-80.786 		
			"/>
	</g>
	<g id="Layer_35" display="inline">
		<polygon fill="#666462" points="47.058,-81.158 48.602,-108.73 32.053,-127.631 30.244,-91.199 		"/>
	</g>
	<g id="Layer_30" display="inline">
		<polygon fill="#666462" points="43.157,-52.517 41.488,-22.736 11.72,-9.808 14.229,-54.61 		"/>
	</g>
	<g id="Layer_31" display="inline">
		<polygon fill="#ECEBEA" points="14.229,-54.61 -2.144,-55.527 -4.244,-18.028 11.72,-9.808 		"/>
	</g>
</g>
<g id="wtc" display="none">
	<g id="Layer_8" display="inline">
		<path fill="#3E6387" d="M113.848-203.16c0,0,3.39-5.075,12.452-2.266c7.703,2.899,7.068,8.337,7.068,8.337l-19.521-5.618V-203.16z
			"/>
	</g>
	<g id="Layer_9" display="inline">
		<polygon fill="#3E6387" points="120.12,-205.641 120.537,-233.895 120.885,-236.47 122.903,-203.692 		"/>
	</g>
	<g id="Layer_10" display="inline">
		<path fill="#2E4E6B" d="M120.175-209.368c0,0-1.36-2.31,1.2-2.31c2.718,0,1.188,2.465,1.188,2.465
			S121.441-210.168,120.175-209.368z"/>
		<path fill="#2E4E6B" d="M120.24-213.533c0,0-1.299-2.275,1.009-2.275c2.047,0,1.046,2.228,1.046,2.228
			S121.237-214.26,120.24-213.533z"/>
		<path fill="#2E4E6B" d="M120.302-217.994c0,0-0.978-2.086,0.905-2.087c1.616,0,0.813,2.054,0.813,2.054
			S121.149-218.555,120.302-217.994z"/>
		<path fill="#2E4E6B" d="M120.37-222.722c0,0-0.839-1.735,0.644-1.735c1.446,0,0.707,1.714,0.707,1.714
			S121.216-223.282,120.37-222.722z"/>
		<path fill="#2E4E6B" d="M120.426-226.732c0,0-0.732-1.351,0.481-1.429c1.174-0.076,0.604,1.429,0.604,1.429
			S121.031-227.259,120.426-226.732z"/>
		<path fill="#2E4E6B" d="M120.495-230.716c0,0-0.722-1.051,0.348-1.051c1,0,0.379,1.051,0.379,1.051
			S120.928-231.021,120.495-230.716z"/>
	</g>
	<g id="Layer_6" display="inline">
		<polygon fill="#9DB3DD" points="111.368,-204.583 139.293,-198.083 144.004,26.123 119.877,26.123 		"/>
	</g>
	<g id="Layer_7" display="inline">
		<polygon fill="#9DB3DD" points="111.368,-204.583 106.311,-186.762 88.183,7.855 113.848,3.744 		"/>
	</g>
	<g id="Layer_4" display="inline">
		<path fill="#678CC5" d="M86.666,21.753l24.702-226.335l27.166,221.311C138.533,16.729,105.755,57.208,86.666,21.753z"/>
	</g>
	<g id="Layer_5" display="inline">
		<path fill="#678CC5" d="M139.293-198.083l-0.76,214.812c0,0,7.682,22.141,21.049,9.102c0.096-0.092-0.285,0.285,0,0
			L139.293-198.083z"/>
	</g>
	<g id="Layer_3" display="inline">
		<path fill="#1D3349" d="M138.533,16.729l21.336,8.817l2.182,45.137l-22.758-0.664C139.293,70.019,109.803,36.263,138.533,16.729z"
			/>
	</g>
	<g id="Layer_2" display="inline">
		<polygon fill="#36567C" points="83.442,60.916 86.666,21.753 138.533,16.729 139.293,70.019 		"/>
	</g>
	<g id="Layer_11" display="inline">
		<polygon fill="#FFFFFF" points="110.98,-203.217 137.563,16.822 138.533,16.729 139.559,17.151 140.104,-189.277 
			139.296,-198.057 138.533,16.729 111.368,-204.583 		"/>
	</g>
	<g id="Layer_12" display="inline">
		<polygon fill="#FFFFFF" points="90.589,-14.191 111.368,-204.583 110.544,-201.68 		"/>
	</g>
</g>
<g id="thin_bldg" display="none">
	<polygon display="inline" fill="#2D223E" points="204.395,-93.454 206.975,-97.479 207.67,-82.073 202.381,-81.888 	"/>
	<polygon display="inline" fill="#74658C" points="158.64,-51.216 153.251,-43.661 154.81,65.677 181.277,64.745 	"/>
	<path display="inline" fill="#8B7CAF" d="M160.526-113.264c0,0-0.408-4.576-4.967,12.21l4.312,169.15l7.592-1.368L160.526-113.264z
		"/>
	<path display="inline" fill="#8B7CAF" d="M163.619-113.925c0,0-2.707-2.149-4.232,0.868l0.595,7.897l4.333,2.206l1.895-2.817
		L163.619-113.925z"/>
	<polygon display="inline" fill="#2D223E" points="163.737,-104.566 162.6,-104.527 159.539,-105.535 164.783,66.965 
		168.711,69.179 180.303,-66.57 	"/>
	<polygon display="inline" fill="#8B7CAF" points="206.014,-87.946 205.622,-99.056 163.619,-113.925 164.487,-101.258 	"/>
	<polygon display="inline" fill="#74658C" points="163.305,-105.275 208.445,-89.271 210.259,-37.677 169.238,-77.515 
		164.229,-78.97 	"/>
	<polygon display="inline" fill="#635375" points="210.404,-67.91 166.683,-79.68 171.915,69.066 215.258,70.112 	"/>
	<polygon display="inline" fill="#423554" points="166.683,-79.68 164.219,-76.421 168.711,69.179 171.915,69.066 	"/>
</g>
<g id="red_bldg" display="none">
	<g id="Layer_21" display="inline">
		<polyline fill="#D8303D" points="52.656,-83.678 52.83,-85.982 56.162,-87.328 56.184,-88.842 74.063,-97.094 72.835,-71.286 
			52.83,-70.39 52.83,-84.09 		"/>
		<polygon fill="#9B1C20" points="96.019,-67.408 96.864,-79.095 74.063,-97.094 71.494,-72.208 83.629,-67.704 		"/>
	</g>
	<g id="Layer_20" display="inline">
		<polyline fill="#D45E72" points="69.503,-90.589 74.063,-88.015 73.249,-75.414 66.658,-74.576 67.701,-88.438 69.224,-90.48 
			69.503,-90.589 		"/>
		<polyline fill="#DD4558" points="80.727,-88.438 74.063,-88.015 72.51,-69.753 80.727,-71.705 80.727,-88.438 		"/>
	</g>
	<g id="Layer_19" display="inline">
		<polyline fill="#F16475" points="74.063,-83.72 68.502,-81.799 69.503,-90.589 51.88,-83.72 50.479,-75.871 46.272,-74.299 
			23.548,60.553 59.79,58.776 74.061,-83.615 		"/>
	</g>
	<g id="Layer_18" display="inline">
		<polygon fill="#D8303D" points="66.658,-9.661 74.081,-83.72 98.993,-67.381 96.207,-7.678 		"/>
		<polygon fill="#D8303D" points="76.596,-49.099 80.727,-88.438 95.104,-77.84 93.036,-48.046 		"/>
	</g>
	<g id="Layer_15" display="inline">
		<polyline fill="#D8303D" points="64.624,-18.916 45.084,-14.983 41.813,5.969 36.345,6.91 27.738,62.104 54.873,58.776 
			64.623,-18.812 		"/>
	</g>
	<g id="Layer_16" display="inline">
		<polygon fill="#9B1C20" points="56.999,39.688 64.612,-18.916 99.138,-6.609 95.128,41.79 		"/>
	</g>
	<g id="Layer_17" display="inline">
		<polyline fill="#771C1C" points="61.6,35.123 47.064,37.344 44.49,59.05 59.351,59.865 59.351,59.865 61.585,35.244 		"/>
	</g>
	<g id="Layer_14" display="inline">
		<polygon fill="#541413" points="59.351,59.865 61.6,35.123 70.321,36.437 67.979,59.78 		"/>
		<polygon fill="#541413" points="77.408,62.066 79.012,36.437 97.457,40.263 96.689,63.758 		"/>
		<polyline fill="#771C1C" points="79.012,36.437 69.945,36.38 67.979,59.78 77.408,62.066 77.408,62.104 79.012,36.437 		"/>
	</g>
</g>
<g id="land">
	<path fill="#A3824A" d="M269.613,60.51l-1.275,1.927l-20.889,3.468l-8.904,12.806l-3.951-2.846l-6.006,10.784l-7.613-3.466
		l-5.284,6.949l-1.905-2.478l-3.584,12.755l-1.418-3.593l-4.273,6.143l-2.844-3.373l-4.89,10.9l-3.649-9.253l-3.457,9.253
		l-3.455-3.294l-3.049,10.543l-6.424-5.213l-10.372,14.566l-1.287-2.235l-5.687,9.046l-6.519-13.112l-1.626,3.253l-1.016-2.032
		l-6.709,15.448l-7.882-6.302l-7.237,4.065l-6.188-10.163l-1.521,3.929l-2.194-4.132l-6.658,9.046l-6.939-5.997l-4.27-16.082
		l-2.438,4.292l-2.439-8.92l-3.029,0.973l-3.069-3.41l-7.317,5.731l-4.676-9.253l-2.487,5.959l-2.028-8.968l-4.835,3.009
		l-2.439-2.251l-6.098,7.236L50.835,93.77v-3.223l-6.996-10.413l-1.55,0.202l-2.206-2.032l-4.742,2.643l-3.613-4.879l-1.529,2.847
		l-3.756-5.489L7.131,62.987H4.489L3.27,60.51l-1.262-1.11C2.008,59.399,253.611,55.521,269.613,60.51z"/>
	<polygon fill="#896228" points="238.545,78.71 239.882,69.563 244.763,60.822 223.82,59.399 223.82,72.409 233.074,63.871 
		230.028,71.393 	"/>
	<polygon fill="#896228" points="228.588,73.019 227.943,81.556 229.309,86.648 220.975,83.183 223.82,79.834 	"/>
	<polygon fill="#896228" points="215.69,90.132 213.785,79.834 215.69,65.701 210.404,67.327 211.568,70.783 196.776,85.418 
		191.231,94.335 196.776,110.486 197.599,93.77 200.152,84.605 207.152,79.834 201.666,99.586 204.51,102.959 205.71,101.233 
		204.51,96.132 209.795,81.963 212.844,86.648 208.783,96.816 210.201,100.409 213.785,87.654 	"/>
	<polygon fill="#896228" points="203.461,65.701 194.549,85.418 194.497,96.132 191.231,103.856 189.67,110.486 186.215,107.192 
		188.481,92.329 186.215,90.962 181.946,99.586 183.166,117.735 176.742,112.522 174.701,110.486 171.371,114.11 175.106,106.219 
		174.701,102.959 168.384,102.959 175.843,96.816 175.843,100.409 183.369,90.132 179.914,90.132 175.558,77.007 183.676,85.85 
		183.369,75.255 191.231,69.055 189.67,78.71 189.67,83.792 191.231,88.094 	"/>
	<polygon fill="#896228" points="146.396,76.098 147.2,99.042 156.714,73.019 160.372,76.791 155.25,101.671 166.723,83.24 
		169.791,84.399 173.964,73.019 173.964,84.545 160.774,114.11 166.723,104.755 167.629,120.926 165.122,115.418 159.396,133.899 
		152.344,121.856 155.846,114.11 153.527,112.522 150.615,102.891 143.671,118.752 144.54,128.985 151.353,115.418 151.252,124.04 
		150.003,122.544 143.527,137.456 135.646,131.154 128.408,135.22 136.794,122.404 132.476,121.795 129.321,122.81 143.542,109.232 
			"/>
	<polygon fill="#896228" points="89.112,74.052 84.772,79.344 91.205,86.439 81.772,96.074 82.343,110.486 89.66,104.755 
		87.946,96.507 89.85,91.718 92.676,86.043 86.454,79.595 	"/>
	<polygon fill="#896228" points="95.759,107.192 98.198,116.112 101.734,110.486 98.747,110.486 98.042,105.421 98.747,97.709 	"/>
	<polygon fill="#896228" points="95.759,99.406 102.451,95.944 102.451,90.271 	"/>
	<path fill="#54B848" d="M2.008,59.851c0,0-1.045-2.161-0.497-3.195h269.117c0,0,0.343,2.372-0.345,4.859l-0.67-1.005l-3.001-0.156
		l-0.351-0.347l-17.595,2.98l-8.21-1.808l-20.275,1.808l-5.365,0.899l-3.018-3.608l-18.187,0.27l-13.311,6.999l-13.974-5.825
		h-20.209l-9.325,6.496l-12.882-5.053l-10.923,5.053l-2.265-1.341l-16.097,1.341l-7.117-5.781l-7.412,4.44L61.67,58.979
		l-9.791,3.576l-10.563-2.421l-17.322,3.753L6.627,61.085L2.008,59.851z"/>
	<line fill="#678CC5" x1="93.638" y1="89.437" x2="95.759" y2="101.315"/>
	<polygon fill="#896228" points="111.846,133.899 104.906,127.902 101.734,115.211 112.917,99.406 107.326,114.956 	"/>
	<polygon fill="#896228" points="105.757,77.621 121.611,91.718 123.785,75.064 126.598,79.834 128.771,76.47 132.863,79.834 
		134.78,76.47 137.338,88.094 140.918,82.479 141.685,85.293 143.985,84.015 142.068,93.987 138.871,89.437 136.794,91.718 
		137.594,98.59 126.726,120.07 129.321,103.065 129.922,89.437 124.871,91.174 117.903,97.567 	"/>
	<polygon fill="#896228" points="119.949,102.426 120.716,122.116 120.698,128.985 122.22,125.057 	"/>
	<polygon fill="#896228" points="97.446,73.019 95.759,91.718 99.104,85.804 101.734,88.094 	"/>
	<polygon fill="#896228" points="72.642,68.218 72.642,80.434 79.93,95.376 79.93,79.834 81.08,74.052 	"/>
	<polygon fill="#896228" points="75.001,106.404 76.86,94.839 82.317,109.838 77.667,101.233 	"/>
	<polygon fill="#896228" points="73.419,99.406 75.001,98.334 72.642,85.293 72.13,96.799 	"/>
	<polygon fill="#896228" points="68.166,71.739 70.468,88.617 68.316,101.233 65.877,98.982 59.779,106.219 59.779,95.376 
		58.193,93.348 59.472,68.218 64.331,90.79 	"/>
	<polygon fill="#896228" points="35.741,73.019 33.896,75.764 32.191,71.788 30.203,70.937 28.357,65.114 26.085,68.218 
		8.62,58.866 3.27,60.51 4.489,62.987 7.768,63.269 26.442,73.425 30.198,78.914 31.907,76.758 35.097,80.617 	"/>
	<polygon fill="#896228" points="49.515,73.019 44.829,76.332 41.989,77.326 40.427,75.064 37.729,73.019 35.741,70.794 
		37.729,68.218 40.711,62.987 39.575,71.93 42.628,68.218 43.693,73.019 	"/>
	<polygon fill="#896228" points="51.929,80.617 52.78,87.976 59.779,106.219 50.835,93.77 	"/>
	<path fill="#54B848" d="M0.001,62.827c0,0-0.264-9.189,7.007-9.689h260.609c0,0,3.917,0.263,2.948,6.653l-6.879,1.581
		C263.687,61.372,1.641,60.456,0.001,62.827z"/>
</g>
<g id="crooked_bldg_copy" display="none">
	<polygon display="inline" fill="#678CC5" points="-329.812,203.039 -246.472,169.622 -228.28,187.461 -320.821,238.283 	"/>
	<polygon display="inline" fill="#1D3349" points="-228.28,187.461 -236.415,239.739 -325.19,276.641 -319.939,230.544 	"/>
	<polygon display="inline" fill="#36567C" points="-319.939,230.544 -329.812,203.039 -334.233,245.08 -325.19,276.641 	"/>
	<polygon display="inline" fill="#2E4E6B" points="-298.156,220.002 -236.522,175.404 -229.833,132.417 -272.474,146.092 
		-274.345,144.329 -286.837,147.254 	"/>
	<polygon display="inline" fill="#3E6387" points="-286.837,147.254 -307.071,133.099 -317.169,197.993 -298.156,220.002 	"/>
	<polygon display="inline" fill="#678CC5" points="-307.071,133.099 -242.673,122.936 -229.833,132.417 -272.474,146.092 
		-274.345,144.329 -286.837,147.254 	"/>
	<polygon display="inline" fill="#9DB3DD" points="-199.522,-89.059 -234.931,-63.671 -237.839,-44.979 -207.812,-51.614 
		-204.452,-54.114 	"/>
	<polygon display="inline" fill="#3E6387" points="-211.884,-63.129 -245.052,-42.286 -250.833,-5.124 -218.867,-16.556 	"/>
	<polygon display="inline" fill="#1D3549" points="-207.062,-52.738 -204.452,-54.114 -195.279,-32.871 -197.238,-31.564 	"/>
	<polygon display="inline" fill="#678CC5" points="-204.452,-54.114 -199.522,-89.059 -190.619,-62.821 -195.279,-32.871 	"/>
	<polygon display="inline" fill="#9DB3DD" points="-226.603,-23.295 -256.969,-9.113 -263.442,32.488 -239.343,31.672 
		-234.532,29.878 	"/>
	<polygon display="inline" fill="#1D3549" points="-221.155,-15.676 -218.867,-16.556 -203.041,5.726 -205.067,6.822 	"/>
	<polygon display="inline" fill="#2E4E6B" points="-218.867,-16.556 -211.884,-63.129 -197.238,-31.564 -203.041,5.726 	"/>
	<polygon display="inline" fill="#2E4E6B" points="-243.433,25.988 -213.282,47.031 -219.759,88.647 -252.394,83.569 	"/>
	<polygon display="inline" fill="#3E6387" points="-243.433,25.988 -270.92,31.686 -278.815,82.432 -252.845,86.473 	"/>
	<polyline display="inline" fill="#1D3549" points="-213.377,47.389 -211.325,47.04 -234.532,29.878 -237.106,30.404 
		-213.282,47.031 -213.377,47.389 	"/>
	<polygon display="inline" fill="#678CC5" points="-211.325,47.04 -205.067,6.822 -226.603,-23.295 -234.532,29.878 	"/>
	<polygon display="inline" fill="#678CC5" points="-221.194,88.484 -227.954,131.925 -273.489,146.575 -263.321,81.225 	"/>
	<polygon display="inline" fill="#9DB3DD" points="-263.321,81.225 -287.202,77.508 -295.714,132.205 -273.489,146.575 	"/>
</g>
</svg>
