<?xml version="1.0" encoding="utf-8"?>
<!-- Generator: Adobe Illustrator 16.0.0, SVG Export Plug-In . SVG Version: 6.00 Build 0)  -->
<!DOCTYPE svg PUBLIC "-//W3C//DTD SVG 1.1//EN" "http://www.w3.org/Graphics/SVG/1.1/DTD/svg11.dtd">
<svg version="1.1" xmlns="http://www.w3.org/2000/svg" xmlns:xlink="http://www.w3.org/1999/xlink" x="0px" y="0px"
	 width="507.15px" height="447.288px" viewBox="0 0 507.15 447.288" enable-background="new 0 0 507.15 447.288"
	 xml:space="preserve">
<g id="empire_st">
	<g id="Layer_59">
		<polygon fill="#171C16" points="390.176,80.35 391.497,54.846 393.29,53.584 394.211,27.114 395.573,53.644 397.362,54.718 
			401.401,80.905 		"/>
		<path fill="#2D3528" d="M386.868,86.75c0,0-0.338-4.377,0.271-6.605c0.754-2.756,2.713-3.286,8.383-3.407
			c3.838-0.082,8.184,0.438,9.295,2.257c2.125,3.478,1.16,7.896,1.16,7.896L386.868,86.75z"/>
	</g>
	<g id="Layer_57">
		<polygon fill="#171C16" points="383.36,102.071 383.29,93.207 388.743,81.005 388.889,99.463 		"/>
	</g>
	<g id="Layer_58">
		<polyline fill="#5B6B4F" points="388.743,81.005 408.831,83.241 409.266,93.443 388.674,92.986 388.581,81.365 		"/>
	</g>
	<g id="Layer_56">
		<polygon fill="#B6CDD7" points="382.124,100.937 383.35,100.927 383.368,103.195 382.104,103.463 		"/>
	</g>
	<g id="Layer_55">
		<polygon fill="#4D5648" points="388.973,109.94 388.799,88.308 413.567,91.447 414.352,117.793 		"/>
	</g>
	<g id="Layer_48">
		<polygon fill="#171C16" points="380.932,245.944 380.795,121.306 382.284,121.293 382.131,101.954 383.94,99.502 384.803,132.497 
			385.141,248.213 		"/>
		<polygon fill="#3F4C35" points="388.799,88.308 383.895,98.523 384.209,115.784 388.961,108.661 		"/>
		<polygon fill="#3F4C35" points="382.124,100.937 379.381,105.847 378.897,125.458 380.795,121.306 382.284,121.293 		"/>
	</g>
	<g id="Layer_52">
		<polygon fill="#5B6B4F" points="387.04,108.424 416.249,112.024 423.784,259.811 387.526,261.449 		"/>
		<polygon fill="#2D3528" points="387.04,108.424 384.077,114.909 383.366,256.623 387.526,261.449 		"/>
	</g>
	<g id="Layer_53">
		<polygon fill="#2D3528" points="377.838,243.361 373.29,241.419 374.29,293.65 378.29,299.65 		"/>
		<polygon fill="#4D5648" points="377.817,243.281 384.006,243.231 383.696,298.05 378.29,299.65 		"/>
	</g>
	<g id="Layer_51">
		<polygon fill="#4D5648" points="388.139,245.887 402.709,245.771 403.219,309.741 388.645,309.361 		"/>
		<polygon fill="#2D3528" points="388.145,246.531 382.09,243.946 383.106,302.54 388.645,309.361 		"/>
		<polygon fill="#3F4C35" points="382.09,243.946 395.338,243.84 402.709,245.771 388.145,246.531 		"/>
		<polygon fill="#3F4C35" points="373.29,241.419 378.821,241.195 384.006,243.231 377.838,243.361 		"/>
		<g id="Layer_54">
			<polygon fill="#2D3528" points="380.795,121.306 377.833,127.79 376.758,241.278 378.645,242.03 380.901,242.012 			"/>
		</g>
	</g>
	<g id="Layer_49">
		<polygon fill="#4D5648" points="417.305,244.347 431.875,244.229 432.047,265.838 417.481,266.502 		"/>
		<polygon fill="#2D3528" points="417.309,244.99 414.915,243.521 414.881,264.43 417.481,266.502 		"/>
		<polygon fill="#3F4C35" points="414.915,243.521 422.922,242.917 422.874,241.97 431.875,244.229 417.309,244.99 		"/>
	</g>
	<g id="Layer_50">
		<g id="Layer_45">
			<polygon fill="#4D5648" points="396.071,259.795 432.338,259.505 432.762,312.726 396.506,314.363 			"/>
		</g>
		<g id="Layer_46">
			<polygon fill="#2D3528" points="396.083,261.381 392.663,259.663 392.344,309.537 396.506,314.363 			"/>
		</g>
		<g id="Layer_47">
			<polygon fill="#3F4C35" points="392.663,259.663 426.049,257.92 432.338,259.505 396.083,261.381 			"/>
		</g>
	</g>
</g>
<g id="chrysler_bldg">
	<g id="Layer_60" display="none">
		
			<image display="inline" overflow="visible" width="1001" height="1500" xlink:href="5B677C71.jpg"  transform="matrix(0.3127 0 0 0.3127 138.687 -299.4517)">
		</image>
	</g>
	<g id="Layer_64">
		<polygon fill="#EFD97F" points="292.886,93.608 293.265,85.864 293.951,84.881 294.697,86.032 294.697,93.608 293.826,94.029 		
			"/>
		<path fill="#B7A44D" d="M294.667,92.764c0,0,0.914,0.924,0.914,3.575l-1.756,1.136l-2.453-0.892c0,0,0.617-3.453,1.74-3.569
			c0.363-0.038,0.713,0.561,0.713,0.561S293.966,93.101,294.667,92.764z"/>
		<path fill="#EFD97F" d="M296.691,101.509c0,0-0.494-4.425-1.186-6.381c-0.201-0.571-0.418-0.932-0.645-0.909
			c-1.006,0.098-1.035,7.632-1.035,7.632L296.691,101.509z"/>
		<path fill="#9B893D" d="M290.951,101.382c0,0-0.379-5.677,1.811-7.023c2.188-1.347,1.064,7.492,1.064,7.492L290.951,101.382z"/>
		<path fill="#B7A44D" d="M290.39,102.324c0,0,0.105-0.34,0.299-0.77c0.518-1.153,1.662-2.951,3.076-0.591
			c0,0,1.848-3.398,3.494,2.088l-3.494,2.415L290.39,102.324z"/>
		<path fill="#EFD97F" d="M293.765,108.202c0,0-0.582-7.118,1.941-6.82c2.525,0.297,3.031,9.683,3.031,9.683L293.765,108.202z"/>
		<path fill="#9B893D" d="M288.558,109.277c0,0,0.402-8.589,3.908-7.851c1.6,0.337,1.559,3.114,1.559,3.114v6.523L288.558,109.277z"
			/>
		<path fill="#B7A44D" d="M287.927,109.497c0,0,3.986-5.285,6.18-1.899c0,0,1.73-2.892,4.191,0.961l-3.289,3.53l-5.363-1.108
			L287.927,109.497z"/>
		<path fill="#EFD97F" d="M301.48,116.583c0,0-1.213-8.751-5.176-8.985c-1.615-0.096-1.863,2.818-1.863,2.818v6.089L301.48,116.583z
			"/>
		<path fill="#9B893D" d="M285.673,116.742c0,0-0.99-6.251,4.521-8.805c3.252-1.507,4.246,2.479,4.246,2.479v6.089L285.673,116.742z
			"/>
		<path fill="#847431" d="M295.003,124.436l-1.238-0.151l0.936-8.975c0,0,0.557-2.406,2.688-2.491s4.24,3.177,4.494,4.626
			c0.256,1.449-0.02,2.215-0.02,2.215L295.003,124.436z"/>
		<path fill="#B7A44D" d="M286.343,115.676c0,0,2.248-2.987,5.348-2.646c1.477,0.162,2.998,2.389,2.998,2.389l-0.313,8.353
			C294.376,123.771,293.806,110.65,286.343,115.676z"/>
		<path fill="#9B893D" d="M283.654,125.882c0,0-1.496-10.292,6.146-11.992c6.666-1.483,4.191,12.143,4.191,12.143L283.654,125.882z"
			/>
		<path fill="#EFD97F" d="M303.792,126.94c0,0-0.689-12.888-6.141-12.843c-4.207,0.034-2.984,14.21-2.984,14.21L303.792,126.94z"/>
		<path fill="#B7A44D" d="M294.804,129.729c0,0,0.891-10.231-4.449-10.588c-5.725,0.155-7.436,7.389-7.436,7.389L294.804,129.729z"
			/>
		<path fill="#9B893D" d="M282.091,132.915c0,0-0.125-5.687,2.092-9.47c1.145-1.951,2.912-3.397,5.639-3.297
			c5.873,0.217,5.18,12.146,5.18,12.146L282.091,132.915z"/>
		<path fill="#847431" d="M294.933,129.997c0,0-1.107-9.61,3.164-10.619c4.271-1.008,5.967,7.605,5.967,7.605L294.933,129.997z"/>
		<path fill="#EFD97F" d="M295.009,132.375c0,0-0.98-12.449,4.115-11.998c5.098,0.452,6.064,12.454,6.033,14.132
			c-0.031,1.677-0.031,1.677-0.031,1.677S292.443,137.049,295.009,132.375z"/>
		<path fill="#B7A44D" d="M283.24,130.475c0,0,2.779-6.502,7.898-4.581c5.117,1.921,3.859,11.147,3.859,11.147
			S293.359,122.94,283.24,130.475z"/>
		<path fill="#9B893D" d="M295.009,157.852l-14.162,2.104V137.44c0,0,1.674-10.771,7.707-10.681c6.031,0.09,6.455,9.77,6.455,9.77
			V157.852z"/>
		<path fill="#847431" d="M295.011,133.055c0,0-0.002-7.516,4.551-7.161c3.014-0.012,4.859,5.765,4.859,5.765
			S298.218,122.604,295.011,133.055z"/>
		<path fill="#EFD97F" d="M295.011,158.179v-24.438c0,0,0.07-6.455,5.016-6.397c4.945,0.059,6.621,12.1,5.689,13.089
			c-0.93,0.989-3.373,20.132-3.373,20.132L295.011,158.179z"/>
		<path fill="#847431" d="M302.925,132.294c0,0-5.682-1.233-5.793,2.955c-0.039,1.518,0.232,21.664,0.232,21.664l4.105,0.629
			l1.455-12.662V132.294z"/>
		<path fill="#B7A44D" d="M293.318,157.307v-18.595c0,0,0.27-8.457-8.049-6.211l3.549,26.541L293.318,157.307z"/>
		<path fill="#9B893D" d="M295.011,158.179l-14.164,1.243l0.705-0.976l0.164-19.354c0,0,0.57-6.798,4.715-6.798
			c4.447,0,4.553,5.767,4.553,5.767l-0.064,19.135L295.011,158.179z"/>
		<polygon fill="#EFD97F" points="294.185,85.977 293.718,60.185 293.718,86.322 		"/>
	</g>
	<g id="Layer_63">
		<polygon fill="#9B893D" points="290.939,156.203 294.609,157.437 294.609,164.755 290.009,166.169 		"/>
		<polygon fill="#847431" points="294.609,157.437 298.314,156.203 298.503,165.895 294.609,165.895 		"/>
		<path fill="#EFD97F" d="M313.634,244.063v54.533l-10.051,6.964l-5.73-40.926l-5.004,2.86v-9.775l1.307-3.527l-0.264-90.201
			l4.422,1.098l0.002-8.93h1.627v-20.077c0,0,0.266-4.432,3.299-3.708s2.941,5.697,2.941,5.697l0.092,19.354l2.08,0.634
			l-0.182,8.683l3.438,0.633l0.182,76.06L313.634,244.063z"/>
	</g>
	<g id="Layer_61">
		<polygon fill="#B7A44D" points="306.296,278.646 306.296,306.046 299.082,312.045 298.664,284.276 		"/>
		<polygon fill="#36567C" points="324.751,265.013 324.751,310.396 319.138,314.679 319.138,268.942 		"/>
		<polygon fill="#B7A44D" points="303.583,267.084 303.583,278.646 298.072,282.151 298.072,270.782 		"/>
		<polygon fill="#36567C" points="321.326,256.086 321.326,264.313 316.826,266.86 316.826,258.793 		"/>
	</g>
	<g id="Layer_62">
		<polygon fill="#847431" points="319.138,268.942 309.453,265.34 309.453,304.584 319.138,314.679 		"/>
		<polygon fill="#847431" points="298.664,284.276 262.542,265.621 262.542,304.25 299.138,311.997 		"/>
		<polygon fill="#847431" points="298.072,270.782 266.328,256.9 266.328,265.621 298.072,282.151 		"/>
		<polygon fill="#847431" points="316.826,258.793 310.445,256.316 310.535,264.643 316.826,266.86 		"/>
		<polygon fill="#847431" points="292.849,257.72 272.998,249.807 272.998,258.528 292.849,267.254 		"/>
		<polyline fill="#9B893D" points="306.296,278.646 303.583,277.223 303.583,278.298 298.072,282.151 266.328,265.621 
			266.328,263.646 262.542,265.621 298.664,284.276 		"/>
		<polygon fill="#9B893D" points="303.583,267.084 297.296,264.397 292.849,267.254 272.998,258.528 272.998,253.166 266.328,256.9 
			298.072,270.782 		"/>
		<polygon fill="#9B893D" points="310.535,264.643 309.453,265.34 319.138,268.942 324.751,265.013 321.339,263.734 
			321.326,264.313 316.826,266.86 		"/>
		<polygon fill="#9B893D" points="310.445,256.316 316.826,258.793 321.326,256.086 313.634,253.393 313.685,254.424 		"/>
		<polygon fill="#9B893D" points="273,249.807 275.255,246.493 294.609,253.393 292.851,257.72 		"/>
		<polygon fill="#B7A44D" points="275.253,246.493 294.609,253.393 293.892,163.991 290.777,164.646 290.939,156.203 
			277.966,157.841 277.912,165.852 275.253,166.429 		"/>
	</g>
</g>
<g id="thin_bldg">
	<polygon fill="#2D223E" points="366.314,143.621 368.894,139.596 369.589,155.002 364.3,155.188 	"/>
	<polygon fill="#74658C" points="320.559,185.859 315.17,193.414 316.729,302.752 343.197,301.82 	"/>
	<path fill="#8B7CAF" d="M322.446,123.812c0,0-0.408-4.576-4.967,12.21l4.312,169.15l7.592-1.368L322.446,123.812z"/>
	<path fill="#8B7CAF" d="M325.539,123.15c0,0-2.707-2.149-4.232,0.868l0.595,7.897l4.333,2.206l1.895-2.817L325.539,123.15z"/>
	<polygon fill="#2D223E" points="325.657,132.509 324.519,132.548 321.458,131.54 326.703,304.04 330.63,306.254 342.222,170.505 	
		"/>
	<polygon fill="#8B7CAF" points="367.933,149.129 367.542,138.02 325.539,123.15 326.407,135.817 	"/>
	<polygon fill="#74658C" points="325.224,131.8 370.365,147.805 372.178,199.398 331.158,159.561 326.149,158.105 	"/>
	<polygon fill="#635375" points="372.324,169.165 328.602,157.396 333.834,306.142 377.177,307.188 	"/>
	<polygon fill="#423554" points="328.602,157.396 326.138,160.654 330.63,306.254 333.834,306.142 	"/>
</g>
<g id="crooked_bldg">
	<g id="Layer_26">
		<polygon fill="#666462" points="125.036,274.295 179.08,246.177 192.552,257.007 133.457,297.492 		"/>
	</g>
	<g id="Layer_24">
		<polygon fill="#262626" points="192.552,257.007 191.757,297.954 133.332,305.804 137.567,285.245 		"/>
	</g>
	<g id="Layer_25">
		<polygon fill="#474647" points="137.567,285.245 125.036,274.295 125.759,297.764 137.94,297.354 		"/>
	</g>
	<g id="Layer_27">
		<polygon fill="#868483" points="147.541,283.638 186.183,249.417 187.833,219.945 159.955,232.021 158.574,230.956 
			150.334,233.763 		"/>
	</g>
	<g id="Layer_28">
		<polygon fill="#C4C3C3" points="150.334,233.763 135.728,225.555 133.236,270.045 147.541,283.638 		"/>
	</g>
	<g id="Layer_29">
		<polygon fill="#666462" points="135.728,225.555 178.533,214.399 187.833,219.945 159.955,232.021 158.574,230.956 
			150.334,233.763 		"/>
	</g>
	<g id="Layer_42">
		<polygon fill="#ECEBEA" points="193.535,68.383 171.319,87.886 170.602,100.7 190.434,94.218 192.536,92.307 		"/>
	</g>
	<g id="Layer_39">
		<polygon fill="#C4C3C3" points="186.917,86.715 165.911,103 164.485,128.477 185.307,118.628 		"/>
	</g>
	<g id="Layer_40">
		<polygon fill="#0B0D0D" points="190.865,93.41 192.536,92.307 200.146,106.038 198.91,107.051 		"/>
	</g>
	<g id="Layer_41">
		<polygon fill="#666462" points="192.536,92.307 193.535,68.383 201.295,85.506 200.146,106.038 		"/>
	</g>
	<g id="Layer_36">
		<polygon fill="#ECEBEA" points="179.634,114.592 160.077,126.192 158.479,154.713 174.697,152.556 177.825,151.023 		"/>
	</g>
	<g id="Layer_37">
		<polygon fill="#0B0D0D" points="183.82,119.374 185.307,118.628 197.478,132.616 196.183,133.492 		"/>
	</g>
	<g id="Layer_38">
		<polygon fill="#868483" points="185.307,118.628 186.917,86.715 198.91,107.051 197.478,132.616 		"/>
	</g>
	<g id="Layer_32">
		<polygon fill="#868483" points="171.556,148.99 193.316,161.188 191.718,189.721 169.345,188.468 		"/>
	</g>
	<g id="Layer_33">
		<polygon fill="#C4C3C3" points="171.556,148.99 153.377,154.669 151.429,189.46 169.234,190.458 		"/>
	</g>
	<g id="Layer_34">
		<polyline fill="#0B0D0D" points="193.277,161.437 194.639,161.064 177.825,151.023 176.123,151.551 193.316,161.188 
			193.277,161.437 		"/>
	</g>
	<g id="Layer_35">
		<polygon fill="#666462" points="194.639,161.064 196.183,133.492 179.634,114.592 177.825,151.023 		"/>
	</g>
	<g id="Layer_30">
		<polygon fill="#666462" points="190.738,189.706 189.07,219.486 159.301,232.415 161.81,187.612 		"/>
	</g>
	<g id="Layer_31">
		<polygon fill="#ECEBEA" points="161.81,187.612 145.438,186.695 143.337,224.194 159.301,232.415 		"/>
	</g>
</g>
<g id="red_bldg">
	<g id="Layer_21">
		<polyline fill="#D8303D" points="87.17,157.071 87.344,154.767 90.677,153.421 90.699,151.907 108.577,143.655 107.35,169.463 
			87.344,170.359 87.344,156.659 		"/>
		<polygon fill="#9B1C20" points="130.533,173.341 131.379,161.654 108.577,143.655 106.008,168.541 118.144,173.045 		"/>
	</g>
	<g id="Layer_20">
		<polyline fill="#D45E72" points="104.018,150.16 108.577,152.734 107.764,165.335 101.172,166.173 102.216,152.312 
			103.738,150.269 104.018,150.16 		"/>
		<polyline fill="#DD4558" points="115.241,152.312 108.577,152.734 107.024,170.996 115.241,169.044 115.241,152.312 		"/>
	</g>
	<g id="Layer_19">
		<polyline fill="#F16475" points="108.577,157.029 103.017,158.95 104.018,150.16 86.395,157.029 84.993,164.878 80.787,166.45 
			58.063,301.302 94.305,299.525 108.576,157.134 		"/>
	</g>
	<g id="Layer_18">
		<polygon fill="#D8303D" points="101.172,231.088 108.596,157.029 133.508,173.368 130.722,233.071 		"/>
		<polygon fill="#D8303D" points="111.111,191.65 115.241,152.312 129.619,162.909 127.55,192.703 		"/>
	</g>
	<g id="Layer_15">
		<polyline fill="#D8303D" points="99.139,221.833 79.599,225.766 76.328,246.718 70.859,247.659 62.252,302.854 89.388,299.525 
			99.137,221.938 		"/>
	</g>
	<g id="Layer_16">
		<polygon fill="#9B1C20" points="91.513,280.438 99.127,221.833 133.652,234.14 129.643,282.539 		"/>
	</g>
	<g id="Layer_17">
		<polyline fill="#771C1C" points="96.115,275.872 81.579,278.093 79.004,299.799 93.866,300.614 93.866,300.614 96.1,275.993 		"/>
	</g>
	<g id="Layer_14">
		<polygon fill="#541413" points="93.866,300.614 96.115,275.872 104.835,277.186 102.494,300.529 		"/>
		<polygon fill="#541413" points="111.923,302.815 113.526,277.186 131.972,281.012 131.204,304.507 		"/>
		<polyline fill="#771C1C" points="113.526,277.186 104.46,277.129 102.494,300.529 111.923,302.815 111.923,302.854 
			113.526,277.186 		"/>
	</g>
</g>
<g id="wtc">
	<g id="Layer_8">
		<path fill="#3E6387" d="M223.301,33.637c0,0,3.39-5.075,12.452-2.266c7.703,2.899,7.068,8.337,7.068,8.337l-19.521-5.618V33.637z"
			/>
	</g>
	<g id="Layer_9">
		<polygon fill="#3E6387" points="229.572,31.156 229.99,2.902 230.337,0.327 232.356,33.104 		"/>
	</g>
	<g id="Layer_10">
		<path fill="#2E4E6B" d="M229.627,27.429c0,0-1.36-2.31,1.2-2.31c2.718,0,1.188,2.465,1.188,2.465S230.894,26.628,229.627,27.429z"
			/>
		<path fill="#2E4E6B" d="M229.692,23.264c0,0-1.299-2.275,1.009-2.275c2.047,0,1.046,2.228,1.046,2.228
			S230.689,22.537,229.692,23.264z"/>
		<path fill="#2E4E6B" d="M229.755,18.803c0,0-0.978-2.086,0.905-2.087c1.616,0,0.813,2.054,0.813,2.054
			S230.602,18.242,229.755,18.803z"/>
		<path fill="#2E4E6B" d="M229.822,14.075c0,0-0.839-1.735,0.644-1.735c1.446,0,0.707,1.714,0.707,1.714
			S230.668,13.515,229.822,14.075z"/>
		<path fill="#2E4E6B" d="M229.879,10.064c0,0-0.732-1.351,0.481-1.429c1.174-0.076,0.604,1.429,0.604,1.429
			S230.483,9.538,229.879,10.064z"/>
		<path fill="#2E4E6B" d="M158.927,1.051c0,0-0.722-1.051,0.348-1.051c1,0,0.379,1.051,0.379,1.051S159.36,0.594,158.927,1.051z"/>
	</g>
	<g id="Layer_6">
		<polygon fill="#9DB3DD" points="220.82,32.214 248.746,38.714 253.457,262.92 229.33,262.92 		"/>
	</g>
	<g id="Layer_7">
		<polygon fill="#9DB3DD" points="220.82,32.214 215.763,50.035 197.635,244.652 223.301,240.541 		"/>
	</g>
	<g id="Layer_4">
		<path fill="#678CC5" d="M196.119,258.55L220.82,32.214l27.166,221.311C247.986,253.525,215.208,294.005,196.119,258.55z"/>
	</g>
	<g id="Layer_5">
		<path fill="#678CC5" d="M248.746,38.714l-0.76,214.812c0,0,7.682,22.141,21.049,9.102c0.096-0.092-0.285,0.285,0,0L248.746,38.714
			z"/>
	</g>
	<g id="Layer_3">
		<path fill="#1D3349" d="M247.986,253.525l21.336,8.817l2.182,45.137l-22.758-0.664
			C248.746,306.815,219.256,273.06,247.986,253.525z"/>
	</g>
	<g id="Layer_2">
		<polygon fill="#36567C" points="192.895,297.713 196.119,258.55 247.986,253.525 248.746,306.815 		"/>
	</g>
	<g id="Layer_11">
		<polygon fill="#FFFFFF" points="220.433,33.58 247.015,253.619 247.986,253.525 249.011,253.948 249.556,47.52 248.749,38.74 
			247.986,253.525 220.82,32.214 		"/>
	</g>
	<g id="Layer_12">
		<polygon fill="#FFFFFF" points="200.042,222.605 220.82,32.214 219.997,35.117 		"/>
	</g>
</g>
<g id="land">
	<path fill="#A3824A" d="M503.708,303.619l-2.383,3.599l-39,6.474l-16.627,23.911l-7.377-5.313l-11.213,20.136l-14.215-6.473
		l-9.867,12.976l-3.557-4.625l-6.691,23.814l-2.648-6.708l-7.979,11.468l-5.311-6.298l-9.129,20.353l-6.814-17.276l-6.453,17.276
		l-6.451-6.149l-5.693,19.686l-11.994-9.733l-19.365,27.197l-2.404-4.175l-10.617,16.891l-12.17-24.481l-3.037,6.073l-1.896-3.796
		l-12.525,28.845l-14.717-11.766l-13.514,7.591l-11.554-18.977l-2.84,7.335l-4.098-7.715l-12.432,16.891l-12.957-11.197
		l-7.97-30.027l-4.555,8.014l-4.554-16.654l-5.656,1.816l-5.73-6.368l-13.663,10.701l-8.729-17.276l-4.645,11.127l-3.786-16.744
		l-9.027,5.617l-4.555-4.201l-11.386,13.511l-16.7-23.244v-6.018L82.16,340.26l-2.893,0.379l-4.119-3.795l-8.855,4.934l-6.746-9.109
		l-2.855,5.314l-7.013-10.248l-36.056-19.489H8.688l-2.277-4.626l-2.355-2.072C4.056,301.547,473.83,294.307,503.708,303.619z"/>
	<polygon fill="#896228" points="445.699,337.603 448.195,320.523 457.308,304.203 418.207,301.547 418.207,325.837 
		435.486,309.896 429.798,323.939 	"/>
	<polygon fill="#896228" points="427.109,326.976 425.906,342.916 428.455,352.425 412.894,345.952 418.207,339.7 	"/>
	<polygon fill="#896228" points="403.027,358.928 399.47,339.7 403.027,313.313 393.158,316.349 395.332,322.801 367.712,350.127 
		357.359,366.776 367.712,396.932 369.248,365.721 374.015,348.609 387.085,339.7 376.841,376.579 382.152,382.877 384.392,379.655 
		382.152,370.131 392.019,343.676 397.712,352.425 390.13,371.409 392.779,378.117 399.47,354.303 	"/>
	<polygon fill="#896228" points="380.193,313.313 363.554,350.127 363.457,370.131 357.359,384.554 354.445,396.932 
		347.994,390.782 352.224,363.031 347.994,360.478 340.023,376.58 342.3,410.468 330.306,400.734 326.496,396.932 320.277,403.699 
		327.251,388.965 326.496,382.877 314.701,382.877 328.626,371.409 328.626,378.117 342.679,358.928 336.228,358.928 
		328.095,334.423 343.251,350.932 342.679,331.15 357.359,319.574 354.445,337.603 354.445,347.091 357.359,355.122 	"/>
	<polygon fill="#896228" points="273.646,332.725 275.148,375.564 292.912,326.976 299.742,334.019 290.177,380.473 
		311.599,346.061 317.328,348.225 325.119,326.976 325.119,348.496 300.492,403.699 311.599,386.23 313.291,416.424 308.611,406.14 
		297.919,440.647 284.751,418.161 291.291,403.699 286.96,400.734 281.525,382.75 268.558,412.364 270.181,431.472 282.9,406.14 
		282.712,422.239 280.38,419.445 268.291,447.288 253.574,435.522 240.06,443.113 255.718,419.186 247.656,418.047 241.765,419.941 
		268.318,394.592 	"/>
	<polygon fill="#896228" points="166.691,328.904 158.588,338.785 170.599,352.033 152.987,370.023 154.051,396.932 167.714,386.23 
		164.513,370.831 168.068,361.89 173.345,351.293 161.728,339.254 	"/>
	<polygon fill="#896228" points="179.1,390.782 183.654,407.437 190.258,396.932 184.679,396.932 183.364,387.475 184.679,373.076 	
		"/>
	<polygon fill="#896228" points="179.1,376.245 191.596,369.781 191.596,359.189 	"/>
	<path fill="#54B848" d="M0,302.368c0,0,0-4.692,3.129-5.944H507.15c0,0-0.908,4.428-2.191,9.072l-1.25-1.877l-5.633,0.626
		l-0.625-1.563l-32.852,5.563l-15.33-3.374l-37.855,3.374l-10.018,1.681l-5.635-6.738l-33.957,0.503l-24.852,13.069l-26.09-10.877
		h-37.734l-17.41,12.129l-24.052-9.434l-20.396,9.434l-4.227-2.504l-30.054,2.504l-13.29-10.794l-13.839,8.29l-34.408-14.746
		l-18.282,6.677l-19.721-4.521l-32.343,7.008l-32.426-5.231L0,302.368z"/>
	<line fill="#678CC5" x1="175.14" y1="357.63" x2="179.1" y2="379.809"/>
	<polygon fill="#896228" points="209.136,440.647 196.179,429.45 190.258,405.754 211.136,376.245 200.697,405.277 	"/>
	<polygon fill="#896228" points="197.768,335.569 227.37,361.89 231.428,330.795 236.68,339.7 240.738,333.42 248.378,339.7 
		251.958,333.42 256.734,355.122 263.417,344.641 264.849,349.893 269.146,347.506 265.566,366.126 259.597,357.63 255.718,361.89 
		257.21,374.721 236.919,414.826 241.765,383.076 242.887,357.63 233.457,360.874 220.447,372.811 	"/>
	<polygon fill="#896228" points="224.266,381.882 225.699,418.646 225.666,431.472 228.506,424.137 	"/>
	<polygon fill="#896228" points="182.25,326.976 179.1,361.89 185.348,350.848 190.258,355.122 	"/>
	<polygon fill="#896228" points="135.938,318.012 135.938,340.82 149.545,368.719 149.545,339.7 151.693,328.904 	"/>
	<polygon fill="#896228" points="140.344,389.311 143.815,367.717 154.003,395.721 145.321,379.655 	"/>
	<polygon fill="#896228" points="137.389,376.245 140.344,374.242 135.938,349.893 134.982,371.377 	"/>
	<polygon fill="#896228" points="127.582,324.587 131.879,356.1 127.863,379.655 123.308,375.454 111.922,388.965 111.922,368.719 
		108.961,364.932 111.349,318.012 120.42,360.157 	"/>
	<polygon fill="#896228" points="67.04,326.976 63.593,332.102 60.412,324.678 56.7,323.088 53.253,312.217 49.012,318.012 
		16.401,300.552 6.412,303.619 8.688,308.245 14.811,308.771 49.678,327.734 56.691,337.982 59.882,333.957 65.837,341.162 	"/>
	<polygon fill="#896228" points="92.757,326.976 84.008,333.162 78.706,335.018 75.789,330.795 70.752,326.976 67.04,322.822 
		70.752,318.012 76.319,308.245 74.198,324.943 79.898,318.012 81.887,326.976 	"/>
	<polygon fill="#896228" points="97.264,341.162 98.855,354.902 111.922,388.965 95.223,365.721 	"/>
</g>
<g id="crooked_bldg_copy" display="none">
	<polygon display="inline" fill="#678CC5" points="-220.359,439.836 -137.019,406.419 -118.828,424.258 -211.369,475.08 	"/>
	<polygon display="inline" fill="#1D3349" points="-118.828,424.258 -126.962,476.536 -215.738,513.438 -210.487,467.341 	"/>
	<polygon display="inline" fill="#36567C" points="-210.487,467.341 -220.359,439.836 -224.781,481.877 -215.738,513.438 	"/>
	<polygon display="inline" fill="#2E4E6B" points="-188.704,456.799 -127.07,412.201 -120.38,369.214 -163.021,382.889 
		-164.892,381.126 -177.384,384.051 	"/>
	<polygon display="inline" fill="#3E6387" points="-177.384,384.051 -197.619,369.896 -207.716,434.79 -188.704,456.799 	"/>
	<polygon display="inline" fill="#678CC5" points="-197.619,369.896 -133.22,359.732 -120.38,369.214 -163.021,382.889 
		-164.892,381.126 -177.384,384.051 	"/>
	<polygon display="inline" fill="#9DB3DD" points="-90.07,147.738 -125.478,173.126 -128.386,191.817 -98.359,185.183 -95,182.683 	
		"/>
	<polygon display="inline" fill="#3E6387" points="-102.431,173.668 -135.599,194.511 -141.38,231.673 -109.415,220.241 	"/>
	<polygon display="inline" fill="#1D3549" points="-97.609,184.059 -95,182.683 -85.827,203.926 -87.786,205.232 	"/>
	<polygon display="inline" fill="#678CC5" points="-95,182.683 -90.07,147.738 -81.167,173.976 -85.827,203.926 	"/>
	<polygon display="inline" fill="#9DB3DD" points="-117.15,213.502 -147.516,227.684 -153.99,269.285 -129.89,268.469 
		-125.08,266.675 	"/>
	<polygon display="inline" fill="#1D3549" points="-111.703,221.121 -109.415,220.241 -93.588,242.522 -95.615,243.619 	"/>
	<polygon display="inline" fill="#2E4E6B" points="-109.415,220.241 -102.431,173.668 -87.786,205.232 -93.588,242.522 	"/>
	<polygon display="inline" fill="#2E4E6B" points="-133.98,262.785 -103.83,283.828 -110.306,325.444 -142.941,320.366 	"/>
	<polygon display="inline" fill="#3E6387" points="-133.98,262.785 -161.467,268.482 -169.363,319.229 -143.392,323.27 	"/>
	<polyline display="inline" fill="#1D3549" points="-103.924,284.186 -101.873,283.837 -125.08,266.675 -127.654,267.201 
		-103.83,283.828 -103.924,284.186 	"/>
	<polygon display="inline" fill="#678CC5" points="-101.873,283.837 -95.615,243.619 -117.15,213.502 -125.08,266.675 	"/>
	<polygon display="inline" fill="#678CC5" points="-111.742,325.281 -118.501,368.722 -164.037,383.372 -153.869,318.021 	"/>
	<polygon display="inline" fill="#9DB3DD" points="-153.869,318.021 -177.75,314.305 -186.261,369.002 -164.037,383.372 	"/>
</g>
</svg>
