<?xml version="1.0" encoding="utf-8"?>
<!-- Generator: Adobe Illustrator 16.0.0, SVG Export Plug-In . SVG Version: 6.00 Build 0)  -->
<!DOCTYPE svg PUBLIC "-//W3C//DTD SVG 1.1//EN" "http://www.w3.org/Graphics/SVG/1.1/DTD/svg11.dtd">
<svg version="1.1" xmlns="http://www.w3.org/2000/svg" xmlns:xlink="http://www.w3.org/1999/xlink" x="0px" y="0px"
	 width="507.15px" height="447.288px" viewBox="0 0 507.15 447.288" enable-background="new 0 0 507.15 447.288"
	 xml:space="preserve">
<g id="chrysler_bldg">
	<g id="Layer_60" display="none">
		
			<image display="inline" overflow="visible" width="1001" height="1500" xlink:href="14E513EC.jpg"  transform="matrix(0.3127 0 0 0.3127 138.687 -299.4517)">
		</image>
	</g>
	<g id="Layer_64">
		<polygon fill="#EFD97F" points="339.796,105.296 340.175,97.552 340.861,96.568 341.607,97.72 341.607,105.296 340.736,105.717 		
			"/>
		<path fill="#B7A44D" d="M341.578,104.451c0,0,0.914,0.924,0.914,3.575l-1.756,1.136l-2.453-0.892c0,0,0.617-3.453,1.74-3.569
			c0.363-0.038,0.713,0.561,0.713,0.561S340.876,104.788,341.578,104.451z"/>
		<path fill="#EFD97F" d="M343.601,113.196c0,0-0.494-4.425-1.186-6.381c-0.201-0.571-0.418-0.932-0.645-0.909
			c-1.006,0.098-1.035,7.632-1.035,7.632L343.601,113.196z"/>
		<path fill="#9B893D" d="M337.861,113.069c0,0-0.379-5.677,1.811-7.023c2.188-1.347,1.064,7.492,1.064,7.492L337.861,113.069z"/>
		<path fill="#B7A44D" d="M337.3,114.012c0,0,0.105-0.34,0.299-0.77c0.518-1.153,1.662-2.951,3.076-0.591
			c0,0,1.848-3.398,3.494,2.088l-3.494,2.415L337.3,114.012z"/>
		<path fill="#EFD97F" d="M340.675,119.89c0,0-0.582-7.118,1.941-6.82c2.525,0.297,3.031,9.683,3.031,9.683L340.675,119.89z"/>
		<path fill="#9B893D" d="M335.468,120.965c0,0,0.402-8.589,3.908-7.851c1.6,0.337,1.559,3.114,1.559,3.114v6.523L335.468,120.965z"
			/>
		<path fill="#B7A44D" d="M334.837,121.185c0,0,3.986-5.285,6.18-1.899c0,0,1.73-2.892,4.191,0.961l-3.289,3.53l-5.363-1.108
			L334.837,121.185z"/>
		<path fill="#EFD97F" d="M348.39,128.271c0,0-1.213-8.751-5.176-8.985c-1.615-0.096-1.863,2.818-1.863,2.818v6.089L348.39,128.271z
			"/>
		<path fill="#9B893D" d="M332.583,128.43c0,0-0.99-6.251,4.521-8.805c3.252-1.507,4.246,2.479,4.246,2.479v6.089L332.583,128.43z"
			/>
		<path fill="#847431" d="M341.914,136.123l-1.238-0.151l0.936-8.975c0,0,0.557-2.406,2.688-2.491s4.24,3.177,4.494,4.626
			c0.256,1.449-0.02,2.215-0.02,2.215L341.914,136.123z"/>
		<path fill="#B7A44D" d="M333.253,127.363c0,0,2.248-2.987,5.348-2.646c1.477,0.162,2.998,2.389,2.998,2.389l-0.313,8.353
			C341.287,135.458,340.716,122.338,333.253,127.363z"/>
		<path fill="#9B893D" d="M330.564,137.569c0,0-1.496-10.292,6.146-11.992c6.666-1.483,4.191,12.143,4.191,12.143L330.564,137.569z"
			/>
		<path fill="#EFD97F" d="M350.703,138.628c0,0-0.689-12.888-6.141-12.843c-4.207,0.034-2.984,14.21-2.984,14.21L350.703,138.628z"
			/>
		<path fill="#B7A44D" d="M341.714,141.416c0,0,0.891-10.231-4.449-10.588c-5.725,0.155-7.436,7.389-7.436,7.389L341.714,141.416z"
			/>
		<path fill="#9B893D" d="M329.001,144.603c0,0-0.125-5.687,2.092-9.47c1.145-1.951,2.912-3.397,5.639-3.297
			c5.873,0.217,5.18,12.146,5.18,12.146L329.001,144.603z"/>
		<path fill="#847431" d="M341.843,141.685c0,0-1.107-9.61,3.164-10.619c4.271-1.008,5.967,7.605,5.967,7.605L341.843,141.685z"/>
		<path fill="#EFD97F" d="M341.919,144.063c0,0-0.98-12.449,4.115-11.998c5.098,0.452,6.064,12.454,6.033,14.132
			c-0.031,1.677-0.031,1.677-0.031,1.677S339.353,148.736,341.919,144.063z"/>
		<path fill="#B7A44D" d="M330.15,142.162c0,0,2.779-6.502,7.898-4.581c5.117,1.921,3.859,11.147,3.859,11.147
			S340.269,134.628,330.15,142.162z"/>
		<path fill="#9B893D" d="M341.919,169.539l-14.162,2.104v-22.515c0,0,1.674-10.771,7.707-10.681c6.031,0.09,6.455,9.77,6.455,9.77
			V169.539z"/>
		<path fill="#847431" d="M341.921,144.742c0,0-0.002-7.516,4.551-7.161c3.014-0.012,4.859,5.765,4.859,5.765
			S345.128,134.292,341.921,144.742z"/>
		<path fill="#EFD97F" d="M341.921,169.866v-24.438c0,0,0.07-6.455,5.016-6.397c4.945,0.059,6.621,12.1,5.689,13.089
			c-0.93,0.989-3.373,20.132-3.373,20.132L341.921,169.866z"/>
		<path fill="#847431" d="M349.835,143.981c0,0-5.682-1.233-5.793,2.955c-0.039,1.518,0.232,21.664,0.232,21.664l4.105,0.629
			l1.455-12.662V143.981z"/>
		<path fill="#B7A44D" d="M340.228,168.994v-18.595c0,0,0.27-8.457-8.049-6.211l3.549,26.541L340.228,168.994z"/>
		<path fill="#9B893D" d="M341.921,169.866l-14.164,1.243l0.705-0.976l0.164-19.354c0,0,0.57-6.798,4.715-6.798
			c4.447,0,4.553,5.767,4.553,5.767l-0.064,19.135L341.921,169.866z"/>
		<polygon fill="#EFD97F" points="341.095,97.664 340.628,71.873 340.628,98.01 		"/>
	</g>
	<g id="Layer_63">
		<polygon fill="#9B893D" points="337.849,167.891 341.519,169.124 341.519,176.442 336.919,177.856 		"/>
		<polygon fill="#847431" points="341.519,169.124 345.224,167.891 345.414,177.582 341.519,177.582 		"/>
		<path fill="#EFD97F" d="M360.544,255.751v54.533l-10.051,6.964l-5.73-40.926l-5.004,2.86v-9.775l1.307-3.527l-0.264-90.201
			l4.422,1.098l0.002-8.93h1.627V147.77c0,0,0.266-4.432,3.299-3.708s2.941,5.697,2.941,5.697l0.092,19.354l2.08,0.634l-0.182,8.683
			l3.438,0.633l0.182,76.06L360.544,255.751z"/>
	</g>
	<g id="Layer_61">
		<polygon fill="#B7A44D" points="353.207,290.334 353.207,317.733 345.992,323.732 345.574,295.964 		"/>
		<polygon fill="#36567C" points="371.662,276.7 371.662,322.083 366.048,326.366 366.048,280.63 		"/>
		<polygon fill="#B7A44D" points="350.494,278.771 350.494,290.334 344.982,293.839 344.982,282.47 		"/>
		<polygon fill="#36567C" points="368.236,267.773 368.236,276 363.736,278.548 363.736,270.48 		"/>
	</g>
	<g id="Layer_62">
		<polygon fill="#847431" points="366.048,280.63 356.363,277.027 356.363,316.271 366.048,326.366 		"/>
		<polygon fill="#847431" points="345.574,295.964 309.453,277.309 309.453,315.938 346.048,323.685 		"/>
		<polygon fill="#847431" points="344.982,282.47 313.238,268.588 313.238,277.309 344.982,293.839 		"/>
		<polygon fill="#847431" points="363.736,270.48 357.355,268.004 357.445,276.33 363.736,278.548 		"/>
		<polygon fill="#847431" points="339.759,269.407 319.908,261.494 319.908,270.216 339.759,278.941 		"/>
		<polyline fill="#9B893D" points="353.207,290.334 350.494,288.91 350.494,289.985 344.982,293.839 313.238,277.309 
			313.238,275.333 309.453,277.309 345.574,295.964 		"/>
		<polygon fill="#9B893D" points="350.494,278.771 344.207,276.085 339.759,278.941 319.908,270.216 319.908,264.854 
			313.238,268.588 344.982,282.47 		"/>
		<polygon fill="#9B893D" points="357.445,276.33 356.363,277.027 366.048,280.63 371.662,276.7 368.25,275.422 368.236,276 
			363.736,278.548 		"/>
		<polygon fill="#9B893D" points="357.355,268.004 363.736,270.48 368.236,267.773 360.544,265.08 360.595,266.111 		"/>
		<polygon fill="#9B893D" points="319.91,261.494 322.166,258.181 341.519,265.08 339.761,269.407 		"/>
		<polygon fill="#B7A44D" points="322.164,258.181 341.519,265.08 340.802,175.679 337.687,176.333 337.849,167.891 
			324.876,169.528 324.822,177.539 322.164,178.116 		"/>
	</g>
</g>
<g id="empire_st">
	<g id="Layer_59">
		<polygon fill="#171C16" points="371.113,92.202 372.433,66.699 374.226,65.438 375.148,38.967 376.509,65.496 378.298,66.57 
			382.337,92.758 		"/>
		<path fill="#2D3528" d="M367.804,98.603c0,0-0.338-4.377,0.271-6.605c0.754-2.756,2.713-3.286,8.383-3.407
			c3.838-0.082,8.184,0.438,9.295,2.257c2.125,3.478,1.16,7.896,1.16,7.896L367.804,98.603z"/>
	</g>
	<g id="Layer_57">
		<polygon fill="#171C16" points="364.296,113.924 364.226,105.06 369.679,92.857 369.826,111.315 		"/>
	</g>
	<g id="Layer_58">
		<polyline fill="#5B6B4F" points="369.679,92.857 389.767,95.094 390.203,105.296 369.611,104.839 369.517,93.218 		"/>
	</g>
	<g id="Layer_56">
		<polygon fill="#B6CDD7" points="363.06,112.789 364.287,112.779 364.304,115.048 363.041,115.315 		"/>
	</g>
	<g id="Layer_55">
		<polygon fill="#4D5648" points="369.91,121.793 369.736,100.16 394.503,103.3 395.289,129.646 		"/>
	</g>
	<g id="Layer_48">
		<polygon fill="#171C16" points="361.869,257.797 361.732,133.158 363.22,133.146 363.068,113.807 364.876,111.354 365.74,144.35 
			366.078,260.065 		"/>
		<polygon fill="#3F4C35" points="369.736,100.16 364.832,110.376 365.146,127.637 369.898,120.514 		"/>
		<polygon fill="#3F4C35" points="363.06,112.789 360.318,117.699 359.833,137.311 361.732,133.158 363.22,133.146 		"/>
	</g>
	<g id="Layer_52">
		<polygon fill="#5B6B4F" points="367.976,120.276 397.185,123.877 404.72,271.663 368.462,273.302 		"/>
		<polygon fill="#2D3528" points="367.976,120.276 365.013,126.762 364.302,268.476 368.462,273.302 		"/>
	</g>
	<g id="Layer_53">
		<polygon fill="#2D3528" points="358.775,255.214 354.226,253.271 355.226,305.503 359.226,311.503 		"/>
		<polygon fill="#4D5648" points="358.753,255.134 364.943,255.084 364.632,309.902 359.226,311.503 		"/>
	</g>
	<g id="Layer_51">
		<polygon fill="#4D5648" points="369.076,257.739 383.646,257.623 384.156,321.594 369.582,321.214 		"/>
		<polygon fill="#2D3528" points="369.082,258.384 363.027,255.799 364.042,314.393 369.582,321.214 		"/>
		<polygon fill="#3F4C35" points="363.027,255.799 376.275,255.692 383.646,257.623 369.082,258.384 		"/>
		<polygon fill="#3F4C35" points="354.226,253.271 359.757,253.048 364.943,255.084 358.775,255.214 		"/>
		<g id="Layer_54">
			<polygon fill="#2D3528" points="361.732,133.158 358.769,139.643 357.695,253.131 359.582,253.883 361.837,253.864 			"/>
		</g>
	</g>
	<g id="Layer_49">
		<polygon fill="#4D5648" points="398.242,256.199 412.812,256.082 412.984,277.69 398.417,278.354 		"/>
		<polygon fill="#2D3528" points="398.246,256.843 395.851,255.374 395.818,276.282 398.417,278.354 		"/>
		<polygon fill="#3F4C35" points="395.851,255.374 403.859,254.77 403.81,253.822 412.812,256.082 398.246,256.843 		"/>
	</g>
	<g id="Layer_50">
		<g id="Layer_45">
			<polygon fill="#4D5648" points="377.007,271.647 413.275,271.357 413.699,324.578 377.443,326.216 			"/>
		</g>
		<g id="Layer_46">
			<polygon fill="#2D3528" points="377.019,273.233 373.599,271.516 373.281,321.39 377.443,326.216 			"/>
		</g>
		<g id="Layer_47">
			<polygon fill="#3F4C35" points="373.599,271.516 406.986,269.772 413.275,271.357 377.019,273.233 			"/>
		</g>
	</g>
</g>
<g id="crooked_bldg">
	<g id="Layer_26">
		<polygon fill="#666462" points="86.907,268.869 140.951,240.751 154.423,251.581 95.328,292.066 		"/>
	</g>
	<g id="Layer_24">
		<polygon fill="#262626" points="154.423,251.581 153.628,292.528 95.203,300.378 99.438,279.819 		"/>
	</g>
	<g id="Layer_25">
		<polygon fill="#474647" points="99.438,279.819 86.907,268.869 87.63,292.338 99.812,291.928 		"/>
	</g>
	<g id="Layer_27">
		<polygon fill="#868483" points="109.412,278.212 148.054,243.991 149.705,214.52 121.826,226.596 120.445,225.53 112.206,228.337 
					"/>
	</g>
	<g id="Layer_28">
		<polygon fill="#C4C3C3" points="112.206,228.337 97.599,220.129 95.107,264.619 109.412,278.212 		"/>
	</g>
	<g id="Layer_29">
		<polygon fill="#666462" points="97.599,220.129 140.404,208.974 149.705,214.52 121.826,226.596 120.445,225.53 112.206,228.337 
					"/>
	</g>
	<g id="Layer_42">
		<polygon fill="#ECEBEA" points="155.406,62.957 133.19,82.46 132.473,95.274 152.305,88.792 154.407,86.881 		"/>
	</g>
	<g id="Layer_39">
		<polygon fill="#C4C3C3" points="148.788,81.289 127.782,97.574 126.356,123.051 147.178,113.202 		"/>
	</g>
	<g id="Layer_40">
		<polygon fill="#0B0D0D" points="152.736,87.984 154.407,86.881 162.017,100.612 160.781,101.625 		"/>
	</g>
	<g id="Layer_41">
		<polygon fill="#666462" points="154.407,86.881 155.406,62.957 163.166,80.08 162.017,100.612 		"/>
	</g>
	<g id="Layer_36">
		<polygon fill="#ECEBEA" points="141.505,109.166 121.948,120.767 120.351,149.287 136.568,147.13 139.696,145.598 		"/>
	</g>
	<g id="Layer_37">
		<polygon fill="#0B0D0D" points="145.691,113.948 147.178,113.202 159.349,127.19 158.054,128.066 		"/>
	</g>
	<g id="Layer_38">
		<polygon fill="#868483" points="147.178,113.202 148.788,81.289 160.781,101.625 159.349,127.19 		"/>
	</g>
	<g id="Layer_32">
		<polygon fill="#868483" points="133.427,143.564 155.188,155.762 153.589,184.295 131.216,183.042 		"/>
	</g>
	<g id="Layer_33">
		<polygon fill="#C4C3C3" points="133.427,143.564 115.248,149.243 113.3,184.034 131.105,185.032 		"/>
	</g>
	<g id="Layer_34">
		<polyline fill="#0B0D0D" points="155.148,156.011 156.51,155.639 139.696,145.598 137.994,146.125 155.188,155.762 
			155.148,156.011 		"/>
	</g>
	<g id="Layer_35">
		<polygon fill="#666462" points="156.51,155.639 158.054,128.066 141.505,109.166 139.696,145.598 		"/>
	</g>
	<g id="Layer_30">
		<polygon fill="#666462" points="152.609,184.28 150.941,214.061 121.172,226.989 123.681,182.187 		"/>
	</g>
	<g id="Layer_31">
		<polygon fill="#ECEBEA" points="123.681,182.187 107.309,181.27 105.208,218.769 121.172,226.989 		"/>
	</g>
</g>
<g id="wtc">
	<g id="Layer_8">
		<path fill="#3E6387" d="M223.301,33.637c0,0,3.39-5.075,12.452-2.266c7.703,2.899,7.068,8.337,7.068,8.337l-19.521-5.618V33.637z"
			/>
	</g>
	<g id="Layer_9">
		<polygon fill="#3E6387" points="229.572,31.156 229.99,2.902 230.337,0.327 232.356,33.104 		"/>
	</g>
	<g id="Layer_10">
		<path fill="#2E4E6B" d="M229.627,27.429c0,0-1.36-2.31,1.2-2.31c2.718,0,1.188,2.465,1.188,2.465S230.894,26.628,229.627,27.429z"
			/>
		<path fill="#2E4E6B" d="M229.692,23.264c0,0-1.299-2.275,1.009-2.275c2.047,0,1.046,2.228,1.046,2.228
			S230.689,22.537,229.692,23.264z"/>
		<path fill="#2E4E6B" d="M229.755,18.803c0,0-0.978-2.086,0.905-2.087c1.616,0,0.813,2.054,0.813,2.054
			S230.602,18.242,229.755,18.803z"/>
		<path fill="#2E4E6B" d="M229.822,14.075c0,0-0.839-1.735,0.644-1.735c1.446,0,0.707,1.714,0.707,1.714
			S230.668,13.515,229.822,14.075z"/>
		<path fill="#2E4E6B" d="M229.879,10.064c0,0-0.732-1.351,0.481-1.429c1.174-0.076,0.604,1.429,0.604,1.429
			S230.483,9.538,229.879,10.064z"/>
		<path fill="#2E4E6B" d="M158.927,1.051c0,0-0.722-1.051,0.348-1.051c1,0,0.379,1.051,0.379,1.051S159.36,0.594,158.927,1.051z"/>
	</g>
	<g id="Layer_6">
		<polygon fill="#9DB3DD" points="220.82,32.214 248.746,38.714 253.457,262.92 229.33,262.92 		"/>
	</g>
	<g id="Layer_7">
		<polygon fill="#9DB3DD" points="220.82,32.214 215.763,50.035 197.635,244.652 223.301,240.541 		"/>
	</g>
	<g id="Layer_4">
		<path fill="#678CC5" d="M196.119,258.55L220.82,32.214l27.166,221.311C247.986,253.525,215.208,294.005,196.119,258.55z"/>
	</g>
	<g id="Layer_5">
		<path fill="#678CC5" d="M248.746,38.714l-0.76,214.812c0,0,7.682,22.141,21.049,9.102c0.096-0.092-0.285,0.285,0,0L248.746,38.714
			z"/>
	</g>
	<g id="Layer_3">
		<path fill="#1D3349" d="M247.986,253.525l21.336,8.817l2.182,45.137l-22.758-0.664
			C248.746,306.815,219.256,273.06,247.986,253.525z"/>
	</g>
	<g id="Layer_2">
		<polygon fill="#36567C" points="192.895,297.713 196.119,258.55 247.986,253.525 248.746,306.815 		"/>
	</g>
	<g id="Layer_11">
		<polygon fill="#FFFFFF" points="220.433,33.58 247.015,253.619 247.986,253.525 249.011,253.948 249.556,47.52 248.749,38.74 
			247.986,253.525 220.82,32.214 		"/>
	</g>
	<g id="Layer_12">
		<polygon fill="#FFFFFF" points="200.042,222.605 220.82,32.214 219.997,35.117 		"/>
	</g>
</g>
<g id="thin_bldg">
	<polygon fill="#2D223E" points="313.847,143.343 316.427,139.317 317.123,154.724 311.833,154.909 	"/>
	<polygon fill="#74658C" points="268.092,185.581 262.704,193.136 264.262,302.474 290.73,301.542 	"/>
	<path fill="#8B7CAF" d="M269.979,123.533c0,0-0.408-4.576-4.967,12.21l4.312,169.15l7.592-1.368L269.979,123.533z"/>
	<path fill="#8B7CAF" d="M273.072,122.872c0,0-2.707-2.149-4.232,0.868l0.595,7.897l4.333,2.206l1.895-2.817L273.072,122.872z"/>
	<polygon fill="#2D223E" points="273.19,132.23 272.052,132.27 268.992,131.262 274.236,303.762 278.164,305.976 289.755,170.227 	
		"/>
	<polygon fill="#8B7CAF" points="315.466,148.851 315.075,137.741 273.072,122.872 273.94,135.539 	"/>
	<polygon fill="#74658C" points="272.757,131.521 317.898,147.526 319.711,199.12 278.691,159.282 273.682,157.827 	"/>
	<polygon fill="#635375" points="319.857,168.887 276.135,157.117 281.368,305.863 324.71,306.909 	"/>
	<polygon fill="#423554" points="276.135,157.117 273.671,160.376 278.164,305.976 281.368,305.863 	"/>
</g>
<g id="red_bldg">
	<g id="Layer_21">
		<polyline fill="#D8303D" points="162.108,153.119 162.282,150.814 165.615,149.469 165.637,147.955 183.515,139.703 
			182.288,165.511 162.282,166.407 162.282,152.707 		"/>
		<polygon fill="#9B1C20" points="205.471,169.389 206.317,157.702 183.515,139.703 180.946,164.589 193.082,169.093 		"/>
	</g>
	<g id="Layer_20">
		<polyline fill="#D45E72" points="178.956,146.208 183.515,148.782 182.702,161.383 176.11,162.221 177.154,148.359 
			178.676,146.316 178.956,146.208 		"/>
		<polyline fill="#DD4558" points="190.179,148.359 183.515,148.782 181.962,167.044 190.179,165.092 190.179,148.359 		"/>
	</g>
	<g id="Layer_19">
		<polyline fill="#F16475" points="183.515,153.077 177.955,154.998 178.956,146.208 161.333,153.077 159.931,160.926 
			155.725,162.498 133.001,297.35 169.243,295.573 183.514,153.182 		"/>
	</g>
	<g id="Layer_18">
		<polygon fill="#D8303D" points="176.11,227.136 183.534,153.077 208.446,169.416 205.66,229.119 		"/>
		<polygon fill="#D8303D" points="186.049,187.698 190.179,148.359 204.557,158.957 202.488,188.751 		"/>
	</g>
	<g id="Layer_15">
		<polyline fill="#D8303D" points="174.077,217.881 154.537,221.813 151.266,242.766 145.797,243.707 137.19,298.901 
			164.326,295.573 174.075,217.985 		"/>
	</g>
	<g id="Layer_16">
		<polygon fill="#9B1C20" points="166.451,276.485 174.065,217.881 208.59,230.188 204.581,278.587 		"/>
	</g>
	<g id="Layer_17">
		<polyline fill="#771C1C" points="171.053,271.92 156.517,274.141 153.942,295.847 168.804,296.662 168.804,296.662 
			171.038,272.041 		"/>
	</g>
	<g id="Layer_14">
		<polygon fill="#541413" points="168.804,296.662 171.053,271.92 179.773,273.233 177.432,296.577 		"/>
		<polygon fill="#541413" points="186.861,298.863 188.464,273.233 206.91,277.06 206.142,300.555 		"/>
		<polyline fill="#771C1C" points="188.464,273.233 179.398,273.177 177.432,296.577 186.861,298.863 186.861,298.901 
			188.464,273.233 		"/>
	</g>
</g>
<g id="land">
	<path fill="#A3824A" d="M503.708,303.619l-2.383,3.599l-39,6.474l-16.627,23.911l-7.377-5.313l-11.213,20.136l-14.215-6.473
		l-9.867,12.976l-3.557-4.625l-6.691,23.814l-2.648-6.708l-7.979,11.468l-5.311-6.298l-9.129,20.353l-6.814-17.276l-6.453,17.276
		l-6.451-6.149l-5.693,19.686l-11.994-9.733l-19.365,27.197l-2.404-4.175l-10.617,16.891l-12.17-24.481l-3.037,6.073l-1.896-3.796
		l-12.525,28.845l-14.717-11.766l-13.514,7.591l-11.554-18.977l-2.84,7.335l-4.098-7.715l-12.432,16.891l-12.957-11.197
		l-7.97-30.027l-4.555,8.014l-4.554-16.654l-5.656,1.816l-5.73-6.368l-13.663,10.701l-8.729-17.276l-4.645,11.127l-3.786-16.744
		l-9.027,5.617l-4.555-4.201l-11.386,13.511l-16.7-23.244v-6.018L82.16,340.26l-2.893,0.379l-4.119-3.795l-8.855,4.934l-6.746-9.109
		l-2.855,5.314l-7.013-10.248l-36.056-19.489H8.688l-2.277-4.626l-2.355-2.072C4.056,301.547,473.83,294.307,503.708,303.619z"/>
	<polygon fill="#896228" points="445.699,337.603 448.195,320.523 457.308,304.203 418.207,301.547 418.207,325.837 
		435.486,309.896 429.798,323.939 	"/>
	<polygon fill="#896228" points="427.109,326.976 425.906,342.916 428.455,352.425 412.894,345.952 418.207,339.7 	"/>
	<polygon fill="#896228" points="403.027,358.928 399.47,339.7 403.027,313.313 393.158,316.349 395.332,322.801 367.712,350.127 
		357.359,366.776 367.712,396.932 369.248,365.721 374.015,348.609 387.085,339.7 376.841,376.579 382.152,382.877 384.392,379.655 
		382.152,370.131 392.019,343.676 397.712,352.425 390.13,371.409 392.779,378.117 399.47,354.303 	"/>
	<polygon fill="#896228" points="380.193,313.313 363.554,350.127 363.457,370.131 357.359,384.554 354.445,396.932 
		347.994,390.782 352.224,363.031 347.994,360.478 340.023,376.58 342.3,410.468 330.306,400.734 326.496,396.932 320.277,403.699 
		327.251,388.965 326.496,382.877 314.701,382.877 328.626,371.409 328.626,378.117 342.679,358.928 336.228,358.928 
		328.095,334.423 343.251,350.932 342.679,331.15 357.359,319.574 354.445,337.603 354.445,347.091 357.359,355.122 	"/>
	<polygon fill="#896228" points="273.646,332.725 275.148,375.564 292.912,326.976 299.742,334.019 290.177,380.473 
		311.599,346.061 317.328,348.225 325.119,326.976 325.119,348.496 300.492,403.699 311.599,386.23 313.291,416.424 308.611,406.14 
		297.919,440.647 284.751,418.161 291.291,403.699 286.96,400.734 281.525,382.75 268.558,412.364 270.181,431.472 282.9,406.14 
		282.712,422.239 280.38,419.445 268.291,447.288 253.574,435.522 240.06,443.113 255.718,419.186 247.656,418.047 241.765,419.941 
		268.318,394.592 	"/>
	<polygon fill="#896228" points="166.691,328.904 158.588,338.785 170.599,352.033 152.987,370.023 154.051,396.932 167.714,386.23 
		164.513,370.831 168.068,361.89 173.345,351.293 161.728,339.254 	"/>
	<polygon fill="#896228" points="179.1,390.782 183.654,407.437 190.258,396.932 184.679,396.932 183.364,387.475 184.679,373.076 	
		"/>
	<polygon fill="#896228" points="179.1,376.245 191.596,369.781 191.596,359.189 	"/>
	<path fill="#54B848" d="M0,302.368c0,0,0-4.692,3.129-5.944H507.15c0,0-0.908,4.428-2.191,9.072l-1.25-1.877l-5.633,0.626
		l-0.625-1.563l-32.852,5.563l-15.33-3.374l-37.855,3.374l-10.018,1.681l-5.635-6.738l-33.957,0.503l-24.852,13.069l-26.09-10.877
		h-37.734l-17.41,12.129l-24.052-9.434l-20.396,9.434l-4.227-2.504l-30.054,2.504l-13.29-10.794l-13.839,8.29l-34.408-14.746
		l-18.282,6.677l-19.721-4.521l-32.343,7.008l-32.426-5.231L0,302.368z"/>
	<line fill="#678CC5" x1="175.14" y1="357.63" x2="179.1" y2="379.809"/>
	<polygon fill="#896228" points="209.136,440.647 196.179,429.45 190.258,405.754 211.136,376.245 200.697,405.277 	"/>
	<polygon fill="#896228" points="197.768,335.569 227.37,361.89 231.428,330.795 236.68,339.7 240.738,333.42 248.378,339.7 
		251.958,333.42 256.734,355.122 263.417,344.641 264.849,349.893 269.146,347.506 265.566,366.126 259.597,357.63 255.718,361.89 
		257.21,374.721 236.919,414.826 241.765,383.076 242.887,357.63 233.457,360.874 220.447,372.811 	"/>
	<polygon fill="#896228" points="224.266,381.882 225.699,418.646 225.666,431.472 228.506,424.137 	"/>
	<polygon fill="#896228" points="182.25,326.976 179.1,361.89 185.348,350.848 190.258,355.122 	"/>
	<polygon fill="#896228" points="135.938,318.012 135.938,340.82 149.545,368.719 149.545,339.7 151.693,328.904 	"/>
	<polygon fill="#896228" points="140.344,389.311 143.815,367.717 154.003,395.721 145.321,379.655 	"/>
	<polygon fill="#896228" points="137.389,376.245 140.344,374.242 135.938,349.893 134.982,371.377 	"/>
	<polygon fill="#896228" points="127.582,324.587 131.879,356.1 127.863,379.655 123.308,375.454 111.922,388.965 111.922,368.719 
		108.961,364.932 111.349,318.012 120.42,360.157 	"/>
	<polygon fill="#896228" points="67.04,326.976 63.593,332.102 60.412,324.678 56.7,323.088 53.253,312.217 49.012,318.012 
		16.401,300.552 6.412,303.619 8.688,308.245 14.811,308.771 49.678,327.734 56.691,337.982 59.882,333.957 65.837,341.162 	"/>
	<polygon fill="#896228" points="92.757,326.976 84.008,333.162 78.706,335.018 75.789,330.795 70.752,326.976 67.04,322.822 
		70.752,318.012 76.319,308.245 74.198,324.943 79.898,318.012 81.887,326.976 	"/>
	<polygon fill="#896228" points="97.264,341.162 98.855,354.902 111.922,388.965 95.223,365.721 	"/>
	<path fill="#54B848" d="M0.309,307.947c0,0-0.493-17.158,13.084-18.092H499.98c0,0,7.479,1.408,7.479,12.147l-14.817,3.227
		C492.641,305.229,3.371,303.52,0.309,307.947z"/>
</g>
<g id="crooked_bldg_copy" display="none">
	<polygon display="inline" fill="#678CC5" points="-220.359,439.836 -137.019,406.419 -118.828,424.258 -211.369,475.08 	"/>
	<polygon display="inline" fill="#1D3349" points="-118.828,424.258 -126.962,476.536 -215.738,513.438 -210.487,467.341 	"/>
	<polygon display="inline" fill="#36567C" points="-210.487,467.341 -220.359,439.836 -224.781,481.877 -215.738,513.438 	"/>
	<polygon display="inline" fill="#2E4E6B" points="-188.704,456.799 -127.07,412.201 -120.38,369.214 -163.021,382.889 
		-164.892,381.126 -177.384,384.051 	"/>
	<polygon display="inline" fill="#3E6387" points="-177.384,384.051 -197.619,369.896 -207.716,434.79 -188.704,456.799 	"/>
	<polygon display="inline" fill="#678CC5" points="-197.619,369.896 -133.22,359.732 -120.38,369.214 -163.021,382.889 
		-164.892,381.126 -177.384,384.051 	"/>
	<polygon display="inline" fill="#9DB3DD" points="-90.07,147.738 -125.478,173.126 -128.386,191.817 -98.359,185.183 -95,182.683 	
		"/>
	<polygon display="inline" fill="#3E6387" points="-102.431,173.668 -135.599,194.511 -141.38,231.673 -109.415,220.241 	"/>
	<polygon display="inline" fill="#1D3549" points="-97.609,184.059 -95,182.683 -85.827,203.926 -87.786,205.232 	"/>
	<polygon display="inline" fill="#678CC5" points="-95,182.683 -90.07,147.738 -81.167,173.976 -85.827,203.926 	"/>
	<polygon display="inline" fill="#9DB3DD" points="-117.15,213.502 -147.516,227.684 -153.99,269.285 -129.89,268.469 
		-125.08,266.675 	"/>
	<polygon display="inline" fill="#1D3549" points="-111.703,221.121 -109.415,220.241 -93.588,242.522 -95.615,243.619 	"/>
	<polygon display="inline" fill="#2E4E6B" points="-109.415,220.241 -102.431,173.668 -87.786,205.232 -93.588,242.522 	"/>
	<polygon display="inline" fill="#2E4E6B" points="-133.98,262.785 -103.83,283.828 -110.306,325.444 -142.941,320.366 	"/>
	<polygon display="inline" fill="#3E6387" points="-133.98,262.785 -161.467,268.482 -169.363,319.229 -143.392,323.27 	"/>
	<polyline display="inline" fill="#1D3549" points="-103.924,284.186 -101.873,283.837 -125.08,266.675 -127.654,267.201 
		-103.83,283.828 -103.924,284.186 	"/>
	<polygon display="inline" fill="#678CC5" points="-101.873,283.837 -95.615,243.619 -117.15,213.502 -125.08,266.675 	"/>
	<polygon display="inline" fill="#678CC5" points="-111.742,325.281 -118.501,368.722 -164.037,383.372 -153.869,318.021 	"/>
	<polygon display="inline" fill="#9DB3DD" points="-153.869,318.021 -177.75,314.305 -186.261,369.002 -164.037,383.372 	"/>
</g>
</svg>
