<svg id="logo" viewBox="20 30 60 100">
            <style type="text/css">

            	.st0{fill:#FFFFFF;}
            	.st2{display:inline;}
            </style>
            <a xmlns:xlink="http://www.w3.org/1999/xlink" xlink:href="./">
            <g id="Layer_10">
            </g>
            <g id="Layer_2">
            	<path class="st0" d="M38.324,47.507c0,0,2.252,2.913,5.06,4.161c0,0-3.699,6.831-13.772,7.803c0,0,0.622,8.302,8.323,13.83
            		c0,0-4.206-6.288-4.45-10.668c0,0,10.329-2.53,14.105-11.799C47.59,50.834,43.011,50.152,38.324,47.507z"></path>
            	<path class="st0" d="M50.812,52.354c0,0-2.688,13.75-12.877,20.948c0,0,7.991,7.011,23.976-0.763c0,0-12.717,2.911-18.187,0.666
            		C43.724,73.204,51.007,65.884,50.812,52.354z"></path>
            </g>
            <g id="Layer_5">
            	<path class="st0" d="M38.324,47.507c0,0-3.578,3.259-8.294,4.161c0,0-0.923,3.301-0.418,7.803c0,0-1.058-4.181-0.407-11.964
            		c0,0,1.519-11.232-6.08-7.933c0,0,2.173-1.736,4.995-0.651s2.084,10.767,2.084,10.767S32.273,51.024,38.324,47.507z"></path>
            </g>
            <g id="Layer_6">
            	<path class="st0" d="M38.324,47.507c0,0-2.896-3.975-2.586-7.641c0.313-3.704-0.875-10.263-7.769-6.547
            		c0,0,7.061-3.545,7.061,6.558C35.03,45.158,38.324,47.507,38.324,47.507z"></path>
            </g>
            <g id="Layer_7">
            	<path class="st0" d="M23.125,39.574c0,0,1.087-2.741,3.09-3.203C26.215,36.371,23.501,36,23.125,39.574z"></path>
            </g>
            <g id="Layer_9">
            	<path class="st0" d="M53.42,55.787c0,0,5.332-1.351,14.37,7.343l-1.785,0.905c0,0,2.908-1.064,7.303,3.191
            		c0,0-7.177,3.249-13.577,3.034c0,0,8.8-1.263,12.128-3.221c0,0-3.205-3.518-7.075-2.455l2.06-1.546
            		C66.844,63.037,60.476,55.527,53.42,55.787z"></path>
            	<path class="st0" d="M64.831,59.159"></path>
            </g>
            </a>
          </svg>
